<svg width="28" height="17" viewBox="0 0 28 17" fill="none" xmlns="http://www.w3.org/2000/svg">
<path d="M8.48738 5.312C8.37004 5.17333 8.17271 5.024 7.89538 4.864C7.62871 4.69333 7.31404 4.544 6.95138 4.416C6.58871 4.288 6.20471 4.208 5.79938 4.176V7.488C5.86338 7.50933 5.93804 7.53067 6.02338 7.552C6.79138 7.73333 7.45271 7.952 8.00738 8.208C8.57271 8.45333 9.00471 8.784 9.30338 9.2C9.61271 9.616 9.76737 10.1653 9.76737 10.848C9.76737 11.584 9.59671 12.1867 9.25538 12.656C8.91404 13.1253 8.45004 13.4773 7.86338 13.712C7.27671 13.9467 6.62604 14.08 5.91138 14.112V15.792H4.93538V14.096C3.41004 13.968 2.06604 13.4613 0.903375 12.576L1.73538 11.04C1.89538 11.2 2.14071 11.3813 2.47137 11.584C2.80204 11.7867 3.18604 11.9733 3.62338 12.144C4.07138 12.304 4.54604 12.4107 5.04738 12.464V9.136C4.96204 9.11467 4.85538 9.088 4.72738 9.056C3.98071 8.864 3.35671 8.64533 2.85538 8.4C2.35404 8.15467 1.97538 7.84533 1.71938 7.472C1.47404 7.09867 1.35138 6.61333 1.35138 6.016C1.35138 5.32267 1.50604 4.73067 1.81538 4.24C2.13538 3.74933 2.56204 3.36533 3.09538 3.088C3.63938 2.81067 4.25271 2.64 4.93538 2.576V0.959999H5.91138V2.576C6.59404 2.61867 7.21804 2.75733 7.78338 2.992C8.35938 3.22667 8.86604 3.50933 9.30338 3.84L8.48738 5.312ZM3.22338 5.728C3.22338 6.16533 3.37271 6.496 3.67138 6.72C3.97004 6.93333 4.42871 7.12533 5.04738 7.296V4.176C4.42871 4.21867 3.97004 4.37867 3.67138 4.656C3.37271 4.92267 3.22338 5.28 3.22338 5.728ZM7.84738 11.04C7.84738 10.5813 7.66604 10.2347 7.30338 10C6.95138 9.75467 6.45004 9.536 5.79938 9.344V12.496C6.45004 12.4747 6.95138 12.3413 7.30338 12.096C7.66604 11.8507 7.84738 11.4987 7.84738 11.04ZM11.0463 14C11.0463 13.4027 11.1156 12.864 11.2543 12.384C11.4036 11.8933 11.6596 11.4453 12.0223 11.04C12.3956 10.624 12.9289 10.224 13.6223 9.84C14.1129 9.56267 14.5663 9.31733 14.9823 9.104C15.4089 8.88 15.7449 8.65067 15.9903 8.416C16.2463 8.18133 16.3743 7.904 16.3743 7.584C16.3743 7.24267 16.2249 6.93867 15.9263 6.672C15.6383 6.39467 15.2223 6.256 14.6783 6.256C14.1023 6.256 13.6169 6.39467 13.2223 6.672C12.8276 6.93867 12.5129 7.21067 12.2783 7.488L11.1743 6.224C11.3236 6.064 11.5743 5.86667 11.9263 5.632C12.2783 5.38667 12.7103 5.17333 13.2223 4.992C13.7449 4.8 14.3316 4.704 14.9823 4.704C16.0063 4.704 16.8116 4.95467 17.3983 5.456C17.9849 5.95733 18.2783 6.58667 18.2783 7.344C18.2783 7.86667 18.1449 8.31467 17.8783 8.688C17.6116 9.05067 17.2916 9.35467 16.9183 9.6C16.5556 9.84533 16.2196 10.048 15.9103 10.208C15.3556 10.4853 14.8969 10.7307 14.5343 10.944C14.1823 11.1573 13.8996 11.376 13.6863 11.6C13.4729 11.824 13.3023 12.096 13.1743 12.416H18.4543V14H11.0463ZM23.3795 16.384C22.5688 16.384 21.8328 16.1973 21.1715 15.824C20.5102 15.4613 20.0142 14.9653 19.6835 14.336L20.7395 13.328C21.0382 13.776 21.4222 14.1387 21.8915 14.416C22.3608 14.6933 22.8622 14.832 23.3955 14.832C24.0462 14.832 24.5848 14.624 25.0115 14.208C25.4488 13.8027 25.6675 13.2693 25.6675 12.608C25.6675 11.968 25.4595 11.4507 25.0435 11.056C24.6382 10.6613 24.1262 10.464 23.5075 10.464C23.1022 10.464 22.7235 10.5547 22.3715 10.736C22.0195 10.9173 21.7315 11.1733 21.5075 11.504H19.9555L21.2515 4.864H26.8035V6.48H22.5315L21.9555 9.584C22.1368 9.38133 22.3822 9.22133 22.6915 9.104C23.0008 8.98667 23.3528 8.928 23.7475 8.928C24.4515 8.928 25.0862 9.08267 25.6515 9.392C26.2168 9.70133 26.6595 10.1333 26.9795 10.688C27.3102 11.232 27.4755 11.8613 27.4755 12.576C27.4755 13.3333 27.2942 13.9947 26.9315 14.56C26.5688 15.136 26.0782 15.584 25.4595 15.904C24.8408 16.224 24.1475 16.384 23.3795 16.384Z" fill="#121212"/>
</svg>
