<svg width="68" height="17" viewBox="0 0 68 17" fill="none" xmlns="http://www.w3.org/2000/svg">
<path d="M8.54988 5.024C8.30454 4.74667 7.93121 4.496 7.42988 4.272C6.93921 4.03733 6.38988 3.89867 5.78188 3.856V7.664L5.89388 7.696C6.68321 7.86667 7.36588 8.07467 7.94188 8.32C8.51788 8.56533 8.96054 8.896 9.26988 9.312C9.57921 9.71733 9.73388 10.2613 9.73388 10.944C9.73388 11.648 9.56321 12.2293 9.22188 12.688C8.89121 13.1467 8.43254 13.4933 7.84588 13.728C7.26988 13.952 6.61388 14.08 5.87788 14.112V15.712H4.98188V14.08C3.45654 13.9627 2.12321 13.44 0.981875 12.512L1.66988 11.296C1.97921 11.616 2.43254 11.9253 3.02988 12.224C3.63788 12.5227 4.31521 12.7093 5.06188 12.784V8.944C5.01921 8.93333 4.97121 8.92267 4.91788 8.912C4.14988 8.72 3.50454 8.512 2.98188 8.288C2.46988 8.05333 2.08054 7.74933 1.81388 7.376C1.54721 7.00267 1.41388 6.51733 1.41388 5.92C1.41388 5.248 1.56321 4.672 1.86188 4.192C2.17121 3.712 2.59254 3.33867 3.12588 3.072C3.66988 2.79467 4.28854 2.62933 4.98188 2.576V0.959999H5.87788V2.576C6.54988 2.608 7.16321 2.74133 7.71788 2.976C8.28321 3.2 8.78454 3.49333 9.22188 3.856L8.54988 5.024ZM2.90188 5.696C2.90188 6.21867 3.07788 6.60267 3.42988 6.848C3.78188 7.09333 4.32588 7.312 5.06188 7.504V3.856C4.32588 3.90933 3.78188 4.096 3.42988 4.416C3.07788 4.736 2.90188 5.16267 2.90188 5.696ZM8.19788 11.088C8.19788 10.544 7.98988 10.1387 7.57388 9.872C7.15788 9.59467 6.56054 9.34933 5.78188 9.136V12.816C6.54988 12.7947 7.14188 12.64 7.55788 12.352C7.98454 12.064 8.19788 11.6427 8.19788 11.088ZM11.063 14C11.063 13.424 11.127 12.9013 11.255 12.432C11.3937 11.952 11.6497 11.4987 12.023 11.072C12.407 10.6453 12.9563 10.2293 13.671 9.824C14.0977 9.58933 14.5243 9.36533 14.951 9.152C15.3883 8.928 15.751 8.68267 16.039 8.416C16.3377 8.13867 16.487 7.81333 16.487 7.44C16.487 7.06667 16.3217 6.72533 15.991 6.416C15.671 6.10667 15.2017 5.952 14.583 5.952C14.167 5.952 13.7937 6.02667 13.463 6.176C13.1323 6.31467 12.8497 6.48533 12.615 6.688C12.391 6.88 12.2097 7.056 12.071 7.216L11.191 6.224C11.3083 6.096 11.527 5.91467 11.847 5.68C12.167 5.43467 12.5777 5.21067 13.079 5.008C13.5803 4.80533 14.1617 4.704 14.823 4.704C15.4843 4.704 16.0497 4.82133 16.519 5.056C16.999 5.28 17.367 5.58933 17.623 5.984C17.879 6.368 18.007 6.8 18.007 7.28C18.007 7.696 17.9163 8.05867 17.735 8.368C17.5643 8.67733 17.3403 8.94933 17.063 9.184C16.7963 9.41867 16.5137 9.62133 16.215 9.792C15.927 9.952 15.6657 10.0907 15.431 10.208C14.791 10.528 14.2737 10.8107 13.879 11.056C13.4843 11.2907 13.1857 11.536 12.983 11.792C12.7803 12.048 12.631 12.3573 12.535 12.72H18.183V14H11.063ZM27.8975 9.312C27.8975 10.2507 27.7215 11.088 27.3695 11.824C27.0175 12.5493 26.5375 13.12 25.9295 13.536C25.3215 13.952 24.6282 14.16 23.8495 14.16C23.0708 14.16 22.3775 13.952 21.7695 13.536C21.1615 13.12 20.6815 12.5493 20.3295 11.824C19.9775 11.088 19.8015 10.2507 19.8015 9.312C19.8015 8.37333 19.9775 7.54133 20.3295 6.816C20.6815 6.08 21.1615 5.504 21.7695 5.088C22.3775 4.66133 23.0708 4.448 23.8495 4.448C24.6282 4.448 25.3215 4.66133 25.9295 5.088C26.5375 5.504 27.0175 6.08 27.3695 6.816C27.7215 7.54133 27.8975 8.37333 27.8975 9.312ZM26.4735 9.312C26.4735 8.608 26.3615 7.98933 26.1375 7.456C25.9135 6.92267 25.6042 6.50667 25.2095 6.208C24.8148 5.90933 24.3615 5.76 23.8495 5.76C23.3268 5.76 22.8682 5.90933 22.4735 6.208C22.0788 6.50667 21.7695 6.92267 21.5455 7.456C21.3215 7.98933 21.2095 8.608 21.2095 9.312C21.2095 10.016 21.3215 10.6347 21.5455 11.168C21.7695 11.6907 22.0788 12.1013 22.4735 12.4C22.8682 12.6987 23.3268 12.848 23.8495 12.848C24.3615 12.848 24.8148 12.6987 25.2095 12.4C25.6042 12.1013 25.9135 11.6907 26.1375 11.168C26.3615 10.6347 26.4735 10.016 26.4735 9.312ZM29.7896 10.272V8.992H34.5096V10.272H29.7896ZM47.7061 5.024C47.4608 4.74667 47.0875 4.496 46.5861 4.272C46.0955 4.03733 45.5461 3.89867 44.9381 3.856V7.664L45.0501 7.696C45.8395 7.86667 46.5221 8.07467 47.0981 8.32C47.6741 8.56533 48.1168 8.896 48.4261 9.312C48.7355 9.71733 48.8901 10.2613 48.8901 10.944C48.8901 11.648 48.7195 12.2293 48.3781 12.688C48.0475 13.1467 47.5888 13.4933 47.0021 13.728C46.4261 13.952 45.7701 14.08 45.0341 14.112V15.712H44.1381V14.08C42.6128 13.9627 41.2795 13.44 40.1381 12.512L40.8261 11.296C41.1355 11.616 41.5888 11.9253 42.1861 12.224C42.7941 12.5227 43.4715 12.7093 44.2181 12.784V8.944C44.1755 8.93333 44.1275 8.92267 44.0741 8.912C43.3061 8.72 42.6608 8.512 42.1381 8.288C41.6261 8.05333 41.2368 7.74933 40.9701 7.376C40.7035 7.00267 40.5701 6.51733 40.5701 5.92C40.5701 5.248 40.7195 4.672 41.0181 4.192C41.3275 3.712 41.7488 3.33867 42.2821 3.072C42.8261 2.79467 43.4448 2.62933 44.1381 2.576V0.959999H45.0341V2.576C45.7061 2.608 46.3195 2.74133 46.8741 2.976C47.4395 3.2 47.9408 3.49333 48.3781 3.856L47.7061 5.024ZM42.0581 5.696C42.0581 6.21867 42.2341 6.60267 42.5861 6.848C42.9381 7.09333 43.4821 7.312 44.2181 7.504V3.856C43.4821 3.90933 42.9381 4.096 42.5861 4.416C42.2341 4.736 42.0581 5.16267 42.0581 5.696ZM47.3541 11.088C47.3541 10.544 47.1461 10.1387 46.7301 9.872C46.3141 9.59467 45.7168 9.34933 44.9381 9.136V12.816C45.7061 12.7947 46.2981 12.64 46.7141 12.352C47.1408 12.064 47.3541 11.6427 47.3541 11.088ZM55.2593 10.224C55.9419 10.3413 56.4806 10.656 56.8753 11.168C57.2806 11.68 57.4833 12.3147 57.4833 13.072C57.4833 13.7227 57.3233 14.2933 57.0033 14.784C56.6939 15.2853 56.2513 15.6693 55.6753 15.936C55.0993 16.2133 54.4273 16.352 53.6593 16.352C52.8486 16.352 52.1339 16.1973 51.5153 15.888C50.9073 15.5893 50.4326 15.1627 50.0913 14.608L51.0353 13.664C51.2806 14.0907 51.6113 14.432 52.0273 14.688C52.4539 14.944 52.9979 15.072 53.6593 15.072C54.3953 15.072 54.9713 14.9013 55.3873 14.56C55.8139 14.2293 56.0273 13.7333 56.0273 13.072C56.0273 12.4 55.7979 11.8667 55.3393 11.472C54.8913 11.0667 54.2353 10.864 53.3713 10.864H52.9553V9.68H53.4033C54.1713 9.68 54.7579 9.49333 55.1633 9.12C55.5793 8.74667 55.7873 8.28267 55.7873 7.728C55.7873 7.16267 55.5899 6.74133 55.1953 6.464C54.8006 6.18667 54.3046 6.048 53.7073 6.048C53.1206 6.048 52.6033 6.176 52.1553 6.432C51.7179 6.67733 51.3766 7.024 51.1313 7.472L50.2673 6.576C50.5446 6.04267 51.0086 5.61067 51.6593 5.28C52.3206 4.94933 53.0513 4.784 53.8513 4.784C54.5233 4.784 55.1153 4.90133 55.6273 5.136C56.1499 5.37067 56.5553 5.70133 56.8433 6.128C57.1313 6.55467 57.2753 7.056 57.2753 7.632C57.2753 8.26133 57.0939 8.82667 56.7313 9.328C56.3793 9.81867 55.8886 10.1173 55.2593 10.224ZM67.1319 9.312C67.1319 10.2507 66.9559 11.088 66.6039 11.824C66.2519 12.5493 65.7719 13.12 65.1639 13.536C64.5559 13.952 63.8625 14.16 63.0839 14.16C62.3052 14.16 61.6119 13.952 61.0039 13.536C60.3959 13.12 59.9159 12.5493 59.5639 11.824C59.2119 11.088 59.0359 10.2507 59.0359 9.312C59.0359 8.37333 59.2119 7.54133 59.5639 6.816C59.9159 6.08 60.3959 5.504 61.0039 5.088C61.6119 4.66133 62.3052 4.448 63.0839 4.448C63.8625 4.448 64.5559 4.66133 65.1639 5.088C65.7719 5.504 66.2519 6.08 66.6039 6.816C66.9559 7.54133 67.1319 8.37333 67.1319 9.312ZM65.7079 9.312C65.7079 8.608 65.5959 7.98933 65.3719 7.456C65.1479 6.92267 64.8385 6.50667 64.4439 6.208C64.0492 5.90933 63.5959 5.76 63.0839 5.76C62.5612 5.76 62.1025 5.90933 61.7079 6.208C61.3132 6.50667 61.0039 6.92267 60.7799 7.456C60.5559 7.98933 60.4439 8.608 60.4439 9.312C60.4439 10.016 60.5559 10.6347 60.7799 11.168C61.0039 11.6907 61.3132 12.1013 61.7079 12.4C62.1025 12.6987 62.5612 12.848 63.0839 12.848C63.5959 12.848 64.0492 12.6987 64.4439 12.4C64.8385 12.1013 65.1479 11.6907 65.3719 11.168C65.5959 10.6347 65.7079 10.016 65.7079 9.312Z" fill="#D19700"/>
</svg>
