<svg width="122" height="122" viewBox="0 0 122 122" fill="none" xmlns="http://www.w3.org/2000/svg">
<path fill-rule="evenodd" clip-rule="evenodd" d="M57.3065 0.601343C70.9298 1.90217 82.5743 8.69367 93.5391 16.119C104.346 23.4373 115.475 31.286 119.727 42.8727C123.993 54.4961 121.887 67.3692 116.465 78.5918C111.384 89.1101 100.62 95.6151 90.7565 102.841C80.2548 110.535 70.7911 121.096 57.3065 121.932C43.5388 122.786 30.7307 115.427 20.3488 107.206C10.6315 99.5119 4.53507 88.9681 1.37429 77.6439C-1.62232 66.908 0.902703 56.174 3.0626 45.275C5.61009 32.4201 4.37416 17.4186 15.0521 8.62465C25.959 -0.357988 42.635 -0.799574 57.3065 0.601343Z" fill="white" fill-opacity="0.32"/>
<path d="M25.5013 78.9656C25.4594 76.4283 25.7509 73.8966 26.3683 71.435C26.4408 70.9769 26.5754 70.5308 26.7683 70.1089C26.9391 69.8021 27.1422 69.5145 27.3743 69.2509C27.8599 68.6612 28.552 68.0175 29.2797 68.252C30.0482 68.4996 30.197 69.5025 30.2089 70.3086L30.3437 79.4608L30.4477 86.5246L30.5759 95.2322C30.622 96.1239 30.5689 97.0181 30.4178 97.8982C30.2259 98.8112 29.6151 99.8169 28.6807 99.8044C27.8552 99.7934 27.2761 98.9901 26.963 98.2276C26.3746 96.5202 26.0825 94.7251 26.0994 92.9196L25.7915 86.4091L25.6327 83.0502C25.5884 82.1123 25.544 81.1744 25.5164 80.2359" fill="white"/>
<path d="M28.3119 78.9655C28.2556 77.2047 28.4094 75.4433 28.77 73.7187C28.855 72.9723 29.0037 72.2346 29.2147 71.5135C29.2211 71.498 29.401 71.196 29.4719 71.1081C29.581 70.9769 29.6988 70.8531 29.8246 70.7378C29.31 70.9468 29.2743 71.0035 29.7178 70.9079H28.2235C27.8391 70.6889 27.536 70.3517 27.3595 69.9465C27.4337 70.2796 27.4434 70.3087 27.3888 70.0338C27.3541 70.4302 27.3618 70.8291 27.4119 71.2237L27.4591 74.427L27.5527 80.7852L27.7419 93.6281C27.8063 94.6826 27.8079 95.74 27.7466 96.7946C27.7483 96.915 27.7353 97.0351 27.7078 97.1523C27.6032 97.4781 27.5883 97.5556 27.6631 97.3848C27.3228 96.8778 29.9678 96.9152 29.6459 97.3459C29.6772 97.3041 29.1476 95.7374 29.1017 95.4549C28.982 94.5368 28.9145 93.6127 28.8992 92.687C28.7017 88.5379 28.4595 84.3875 28.3272 80.2358C28.2123 76.6338 22.5906 76.6179 22.706 80.2358C22.7864 82.7596 22.9278 85.2819 23.0471 87.8041C23.1733 90.4724 23.1814 93.1781 23.5249 95.8292C23.8599 98.415 24.7496 101.691 27.6357 102.47C30.9091 103.354 32.9864 100.284 33.305 97.4594C33.4741 94.7335 33.472 91.9998 33.299 89.2743L33.1837 81.4474L33.0635 73.283C33.0285 70.9018 33.4418 67.7389 31.2168 66.1578C28.2184 64.0272 24.7928 66.9203 23.8666 69.8453C22.9636 72.7977 22.5661 75.881 22.6908 78.9655C22.7058 79.7049 23.0067 80.4098 23.5306 80.9328C24.0545 81.4557 24.7607 81.7561 25.5014 81.7711C26.2446 81.7639 26.9553 81.466 27.4808 80.9414C28.0064 80.4168 28.3048 79.7073 28.312 78.9655L28.3119 78.9655Z" fill="white"/>
<path d="M97.7685 90.2215C97.8103 92.7587 97.5188 95.2905 96.9014 97.7521C96.8289 98.2102 96.6944 98.6563 96.5014 99.0782C96.3306 99.3849 96.1275 99.6725 95.8954 99.9361C95.4098 100.526 94.7178 101.17 93.99 100.935C93.2215 100.687 93.0727 99.6845 93.0608 98.8784L92.926 89.7263L92.822 82.6625L92.6938 73.9548C92.6478 73.0631 92.7008 72.169 92.8519 71.2888C93.0439 70.3758 93.6546 69.3701 94.589 69.3826C95.4145 69.3936 95.9936 70.1969 96.3067 70.9594C96.8951 72.6668 97.1872 74.4619 97.1704 76.2674L97.4782 82.778L97.637 86.1368C97.6813 87.0747 97.7257 88.0126 97.7533 88.9511" fill="white"/>
<path d="M94.958 90.2215C95.0143 91.9824 94.8605 93.7437 94.4999 95.4683C94.4149 96.2147 94.2662 96.9525 94.0552 97.6736C94.0488 97.689 93.8689 97.9911 93.798 98.079C93.6889 98.2102 93.5711 98.3339 93.4453 98.4493C93.96 98.2402 93.9955 98.1835 93.5521 98.2792H95.0464C95.4308 98.4981 95.7339 98.8354 95.9104 99.2405C95.8362 98.9074 95.8265 98.8783 95.8811 99.1532C95.9158 98.7569 95.908 98.358 95.858 97.9633L95.8108 94.76L95.7171 88.4019L95.528 75.5589C95.4636 74.5044 95.462 73.4471 95.5233 72.3924C95.5216 72.272 95.5346 72.1519 95.5621 72.0348C95.6667 71.7089 95.6816 71.6314 95.6068 71.8022C95.9471 72.3092 93.3021 72.2718 93.624 71.8411C93.5928 71.8829 94.1223 73.4496 94.1683 73.7321C94.2879 74.6502 94.3555 75.5743 94.3707 76.5C94.5682 80.6491 94.8104 84.7995 94.9427 88.9512C95.0576 92.5532 100.679 92.5691 100.564 88.9512C100.483 86.4275 100.342 83.9051 100.223 81.3829C100.097 78.7146 100.088 76.009 99.745 73.3579C99.41 70.772 98.5203 67.4964 95.6342 66.7169C92.3608 65.8328 90.2835 68.9028 89.9649 71.7276C89.7958 74.4535 89.7979 77.1872 89.9709 79.9128L90.0862 87.7397L90.2064 95.9041C90.2415 98.2853 89.8281 101.448 92.0531 103.029C95.0515 105.16 98.4771 102.267 99.4033 99.3418C100.306 96.3894 100.704 93.306 100.579 90.2216C100.564 89.4822 100.263 88.7772 99.7393 88.2542C99.2154 87.7313 98.5092 87.4309 97.7685 87.4159C97.0253 87.4231 96.3146 87.721 95.7891 88.2457C95.2635 88.7703 94.9651 89.4797 94.9579 90.2216L94.958 90.2215Z" fill="white"/>
<g opacity="0.5">
<path opacity="0.5" d="M21.0865 71.2155C20.9051 76.1556 20.8472 81.1132 20.8407 86.0565C20.8138 88.4778 20.922 90.8987 21.1649 93.308C21.3432 94.9187 21.2529 98.3923 23.3598 98.7714C25.1284 99.0896 25.8871 96.3863 24.107 96.066C24.4854 96.4333 24.5691 96.3602 24.358 95.8466C24.3014 95.5497 24.2487 95.2522 24.1999 94.954C24.1229 94.4816 24.0564 94.0079 24.0003 93.5331C23.8758 92.4832 23.7969 91.4275 23.7429 90.3718C23.6345 88.2532 23.6414 86.1309 23.6666 84.0104C23.7174 79.7463 23.7406 75.4772 23.8971 71.2155C23.9634 69.4098 21.1526 69.4125 21.0865 71.2155H21.0865Z" fill="white"/>
</g>
<g opacity="0.8">
<path opacity="0.8" d="M18.7273 77.5289C18.2759 77.9612 17.9199 78.4829 17.6822 79.0605C17.4446 79.6382 17.3305 80.2591 17.3473 80.8833C17.3434 82.2008 17.4916 83.5317 17.5712 84.8465C17.6494 86.1369 17.7124 87.4293 17.8059 88.7186C17.8019 89.3644 17.9987 89.9954 18.3691 90.5248C18.6165 90.8327 18.9453 91.0653 19.3183 91.1961C19.6913 91.327 20.0936 91.351 20.4795 91.2653C20.8377 91.1644 21.1416 90.9267 21.3253 90.6037C21.509 90.2806 21.5578 89.8983 21.461 89.5396C21.3537 89.1862 21.1144 88.8875 20.7927 88.7051C20.471 88.5228 20.0914 88.4707 19.7323 88.5598L19.5931 88.5793H20.3403C19.8769 88.5128 20.6991 88.8185 20.6273 88.877C20.6302 88.6761 20.6176 88.4752 20.5897 88.2761L20.5092 86.9485L20.3349 84.0721C20.2771 83.118 20.1969 82.1623 20.1643 81.2071C20.1087 80.9013 20.1299 80.5865 20.226 80.2908C20.322 79.9952 20.4899 79.7279 20.7147 79.5128C22.0426 78.2811 20.0517 76.3005 18.7273 77.5289H18.7273Z" fill="white"/>
</g>
<g opacity="0.5">
<path opacity="0.5" d="M102.366 98.6289C102.547 93.6889 102.605 88.7312 102.612 83.7879C102.638 81.3666 102.53 78.9457 102.287 76.5364C102.109 74.9257 102.199 71.4521 100.092 71.073C98.3238 70.7548 97.5651 73.4582 99.3452 73.7784C98.9668 73.4111 98.8832 73.4843 99.0942 73.9979C99.1508 74.2947 99.2035 74.5922 99.2523 74.8904C99.3293 75.3628 99.3958 75.8365 99.4519 76.3113C99.5764 77.3612 99.6553 78.4169 99.7093 79.4726C99.8177 81.5912 99.8109 83.7135 99.7856 85.8341C99.7348 90.0981 99.7116 94.3672 99.5551 98.6289C99.4888 100.435 102.3 100.432 102.366 98.6289H102.366Z" fill="white"/>
</g>
<g opacity="0.8">
<path opacity="0.8" d="M104.725 92.3156C105.176 91.8833 105.532 91.3616 105.77 90.7839C106.007 90.2063 106.122 89.5854 106.105 88.9611C106.109 87.6437 105.96 86.3128 105.881 84.998C105.803 83.7076 105.74 82.4152 105.646 81.1258C105.65 80.4801 105.453 79.8491 105.083 79.3197C104.836 79.0118 104.507 78.7792 104.134 78.6483C103.761 78.5174 103.359 78.4935 102.973 78.5792C102.614 78.6801 102.311 78.9178 102.127 79.2408C101.943 79.5639 101.894 79.9461 101.991 80.3048C102.098 80.6583 102.338 80.957 102.659 81.1394C102.981 81.3217 103.361 81.3737 103.72 81.2846L103.859 81.2652H103.112C103.575 81.3317 102.753 81.026 102.825 80.9675C102.822 81.1684 102.834 81.3693 102.862 81.5684L102.943 82.8959L103.117 85.7724C103.175 86.7264 103.255 87.6821 103.288 88.6374C103.343 88.9432 103.322 89.258 103.226 89.5537C103.13 89.8493 102.962 90.1166 102.737 90.3317C101.409 91.5634 103.4 93.544 104.725 92.3156H104.725Z" fill="white"/>
</g>
<g opacity="0.9">
<path opacity="0.9" d="M36.4143 86.4312C36.4001 86.4302 36.3863 86.4261 36.3738 86.4193C36.3613 86.4125 36.3504 86.4031 36.3418 86.3918C36.1008 86.1899 35.812 85.7202 36.4823 85.3124C36.512 85.296 36.5441 85.2847 36.5775 85.2787C36.9431 85.3308 37.31 85.3735 37.6774 85.4106L38.2294 85.4578L38.3675 85.4674L38.4366 85.4721L38.8457 85.4962L39.7565 85.5264C40.9719 85.5455 42.1872 85.4768 43.3928 85.3207L43.8441 85.2584C43.9924 85.2364 44.163 85.2146 44.2336 85.1934C44.256 85.188 44.2776 85.1799 44.2979 85.1694L44.3466 85.1172C44.411 85.06 44.4577 84.9858 44.4815 84.9031C44.6811 84.3669 44.8858 83.7593 45.0612 83.187C45.4225 82.0169 45.6897 80.8175 45.9398 79.5965C45.9915 79.3384 46.0686 79.0861 46.17 78.8432C46.2608 78.591 46.4014 78.3594 46.5834 78.1624C46.7191 78.0071 46.9092 77.9097 47.1147 77.8902C47.218 77.8809 47.3222 77.8933 47.4206 77.9264C47.5189 77.9596 47.6092 78.0129 47.6857 78.0829C48.0024 78.4807 48.1977 78.9612 48.2481 79.4669C48.3095 79.7625 48.3105 79.8267 48.3412 80.0044L48.4154 80.4613C48.8435 82.9017 49.4284 85.3121 50.1664 87.6776L50.7293 89.4549C50.8026 89.7113 50.8934 89.9625 51.0011 90.2066L51.0029 90.2071C51.1395 89.7747 51.2301 89.329 51.2729 88.8776L51.5844 87.0274L52.8305 79.6264L54.0765 72.2254L54.388 70.3752L54.5437 69.4501L54.6314 68.9426C54.6734 68.6476 54.8104 68.3743 55.0218 68.1639C55.2412 67.9806 55.5246 67.8917 55.8097 67.9168C56.0948 67.9419 56.3582 68.079 56.5421 68.298C56.7255 68.5086 56.8548 68.7607 56.9186 69.0324C56.962 69.2164 56.9899 69.4037 57.002 69.5923L57.1073 71.4774C57.3872 76.4679 57.7297 81.4543 58.1349 86.4368C58.4209 89.9687 58.7396 93.4977 59.0908 97.024C59.2696 98.7842 59.4324 100.562 59.6823 102.28L59.8551 103.544C59.9077 103.748 60.0265 103.775 60.1016 103.751C60.1373 103.738 60.1775 103.713 60.2128 103.623C60.2621 103.456 60.2958 103.285 60.3135 103.111C60.3725 102.691 60.4174 102.252 60.4597 101.816C60.7862 98.3192 60.8733 94.7536 61.1776 91.2114C61.4523 87.6681 61.787 84.1313 62.156 80.6001L63.3223 70.0187L63.9116 64.7329C63.9947 63.8618 64.1385 62.9462 64.2645 62.0458C64.2846 61.8641 64.3411 61.6882 64.4307 61.5288C64.5203 61.3693 64.6412 61.2296 64.7862 61.1178C64.965 60.9864 65.1777 60.9087 65.3992 60.8938C65.6207 60.8789 65.8419 60.9274 66.0367 61.0337C66.2038 61.1328 66.347 61.2673 66.4565 61.4276C66.5659 61.5879 66.6389 61.7701 66.6703 61.9616L66.8 62.6376C67.0536 64.417 67.1984 66.2102 67.2336 68.0071C67.2758 68.8894 67.331 69.7565 67.4341 70.6203C67.5456 71.5009 67.6202 72.4159 67.7146 73.2797C68.1268 76.776 68.3042 80.3663 68.7266 83.8701C69.1713 87.3589 69.491 90.9148 70.1805 94.3455L70.4603 95.6314L70.4978 95.7928L70.4987 95.7945L70.5027 95.7943C70.7106 95.7632 70.8109 94.5963 70.9468 93.7696L71.727 88.5097L73.2874 77.9899L73.4997 76.559L73.5977 75.8982C73.614 75.6949 73.6575 75.4947 73.727 75.3029C73.8139 75.0934 73.9666 74.9176 74.162 74.802C74.5692 74.5164 75.4748 74.6026 75.4801 75.1356L75.7235 75.9694L75.7872 77.0798C75.8898 78.8311 76.0935 80.5756 76.3322 82.3281C76.5696 84.08 76.8247 85.8428 77.0273 87.6136L77.1741 88.9426L77.1806 89.0018L77.1817 89.004L77.186 89.0043L77.1876 89.0024L77.2559 88.8702L77.5377 88.2693L78.1025 87.0647C78.2899 86.6318 78.5074 86.2126 78.7536 85.8102C78.9039 85.5549 79.1032 85.3318 79.3401 85.1536C79.577 84.9755 79.8469 84.8459 80.1342 84.7722C80.3958 84.7192 80.6628 84.697 80.9296 84.7058L81.2378 84.7105L81.2884 84.7113L81.4908 84.7147L82.3007 84.7284L83.0265 84.7923C83.6147 84.8532 84.5606 84.9549 85.3117 85.0747C87.4169 85.3572 86.5696 85.6005 85.2598 85.7172C85.3493 85.7353 83.9661 85.8022 83.0091 85.8458L82.1289 85.8849L81.3381 85.8718L81.2393 85.8702C81.5635 85.9087 80.2421 85.7364 80.0141 86.0994C79.5343 86.7241 79.1501 87.4166 78.8743 88.1541L78.3228 89.3304C78.1818 89.6655 77.9577 89.9592 77.6715 90.1839C77.5161 90.2928 77.3315 90.3526 77.1416 90.3556C76.9518 90.3587 76.7653 90.3048 76.6065 90.2009C76.4414 90.0809 76.3043 89.9266 76.2049 89.7486C76.1054 89.5706 76.0458 89.3731 76.0304 89.1698L75.9581 88.5019L75.8116 87.2181L75.4783 84.6513C75.2449 82.9388 74.9927 81.2183 74.8174 79.4784L74.6978 78.1723L74.6162 76.9502L74.0348 80.8708L72.5096 91.1548L72.1283 93.7257L71.9377 95.0112L71.8899 95.3326C71.874 95.4598 71.8511 95.586 71.8214 95.7107C71.7469 96.0053 71.6083 96.2798 71.4153 96.5146C71.2879 96.6768 71.1241 96.8067 70.9372 96.8941C70.7503 96.9814 70.5454 97.0237 70.3391 97.0175C70.1355 97.0126 69.9386 96.944 69.776 96.8216C69.6135 96.6991 69.4935 96.5288 69.4329 96.3347L69.1118 94.916C68.9305 94.0593 68.7734 93.1944 68.638 92.3316C68.358 90.6124 68.1609 88.8926 67.9534 87.1611C67.7507 85.4343 67.5226 83.7045 67.3412 81.9801L66.9071 76.8198L66.3822 71.6472C66.1479 69.946 66.0687 68.1404 65.9971 66.4364C65.9558 65.5766 65.9024 64.725 65.8052 63.886C65.7542 63.4673 65.6962 63.0506 65.6195 62.6398L65.5589 62.3327C65.5392 62.2243 65.5127 62.118 65.5082 62.105C65.477 62.0424 65.4752 62.052 65.4752 62.052C65.4752 62.052 65.4837 62.0451 65.4616 62.0634C65.4461 62.0862 65.435 62.1117 65.4288 62.1386C65.4099 62.2277 65.3956 62.3177 65.386 62.4083L65.2098 63.6574C65.0968 64.4966 65.0159 65.3737 64.9169 66.2299L64.3377 71.3937L63.2104 81.7167C62.8586 85.1583 62.5346 88.6015 62.2818 92.0485C61.9988 95.4898 61.9243 98.9454 61.5673 102.432C61.5148 102.879 61.4821 103.283 61.3749 103.792C61.3017 104.14 61.1075 104.451 60.8268 104.67C60.6675 104.785 60.4843 104.863 60.2907 104.899C60.0971 104.934 59.8981 104.925 59.7082 104.874C59.5273 104.822 59.3588 104.734 59.2129 104.615C59.067 104.497 58.9467 104.35 58.8593 104.183C58.7839 104.034 58.73 103.875 58.6991 103.71L58.6555 103.384L58.4812 102.077C58.2247 100.326 58.0923 98.6188 57.9075 96.889C57.5681 93.4389 57.2571 89.9862 56.9745 86.5308C56.5684 81.5392 56.2251 76.543 55.9446 71.5423L55.8409 69.6808C55.8348 69.5263 55.8084 69.3732 55.7624 69.2256L55.2246 72.418L53.9787 79.819L52.7329 87.22L52.4214 89.0702L52.2657 89.9954L52.2246 90.2357C52.203 90.3548 52.1681 90.4711 52.1204 90.5824C52.0708 90.699 52.0069 90.8089 51.9303 90.9098C51.8362 91.0334 51.7213 91.1396 51.5906 91.2237C51.462 91.3065 51.318 91.3626 51.1672 91.3887C51.0164 91.4147 50.8619 91.4102 50.7129 91.3754C50.4141 91.2897 50.1614 91.0894 50.0103 90.8182C49.8484 90.4978 49.7185 90.1623 49.6222 89.8166L49.052 88.0161C48.2994 85.603 47.703 83.1441 47.2667 80.6545L47.1104 79.695L47.0809 79.8299C46.8292 81.0592 46.5524 82.3052 46.1753 83.5267C45.9859 84.1404 45.7963 84.7101 45.5624 85.3366C45.4823 85.5477 45.3606 85.7406 45.2045 85.9038C45.1185 86.0035 45.0182 86.09 44.907 86.1607C44.7932 86.2288 44.6703 86.2807 44.5421 86.3148C44.3679 86.3563 44.1914 86.3878 44.0136 86.409L43.5416 86.4741C42.2809 86.6373 41.01 86.7092 39.7388 86.6893L38.7864 86.6578L38.3585 86.6326L38.2863 86.6277L38.1418 86.6177L37.5646 86.5685C37.1804 86.53 36.7967 86.4855 36.4143 86.4312Z" fill="white"/>
</g>
<g opacity="0.5">
<path opacity="0.5" d="M17.8317 78.6351C12.5476 68.6106 12.7038 56.1108 17.49 45.8401C22.2762 35.5695 31.4029 27.5722 41.9318 23.3477C52.4607 19.1231 64.2826 18.5412 75.3938 20.841C77.8445 21.3101 80.2417 22.0238 82.5495 22.9714C84.464 23.8124 86.2944 24.8327 88.016 26.0186C96.4508 31.7523 102.779 40.0786 106.04 49.7315C109.21 59.2071 108.107 69.144 104.899 78.6021C105.323 79.0438 105.693 79.5347 106 80.0642C106.147 80.3362 106.269 80.6215 106.362 80.9163C109.953 67.8413 110.711 58.5299 107.57 48.1671C105.355 40.8621 101.928 33.8653 96.5064 28.4836C85.1927 17.2527 69.2838 13.3171 53.5094 15.7099C37.735 18.1027 25.7203 23.3659 18.2594 37.4447C16.4952 41.2474 15.0324 45.1823 13.8842 49.2132C11.3536 60.2749 12.5493 71.861 17.2859 82.1753L17.3158 82.1749C17.1121 80.9327 17.1329 79.4888 18.0624 78.6359L17.8317 78.6351Z" fill="white"/>
</g>
<path d="M20.2523 76.28C20.2865 76.2776 20.3205 76.2878 20.3477 76.3087C20.4371 76.3502 20.5151 76.4125 20.5754 76.4903C20.6357 76.5681 20.6764 76.6592 20.6942 76.7559C20.7176 76.9526 20.5828 77.1583 20.3429 77.3968C20.3232 77.4163 20.3002 77.4322 20.2749 77.4437C20.0154 77.4506 19.7602 77.5117 19.5258 77.6231C19.4025 77.6829 19.2837 77.7515 19.1704 77.8284L19.0027 77.9543L18.9223 78.0229C18.8243 78.1078 18.7325 78.1994 18.6475 78.2972C18.521 78.439 18.4085 78.5927 18.3117 78.7561C17.5254 80.1 17.7165 81.948 17.7322 83.7437L17.7854 86.4478C17.7754 87.3181 17.8152 88.1882 17.9044 89.054C17.9579 89.4157 18.1012 89.7583 18.3211 90.0506C18.5411 90.343 18.8308 90.5758 19.1639 90.7278C19.5259 90.9118 19.9079 91.0537 20.3024 91.1506C20.4522 91.1844 20.598 91.2334 20.7377 91.2972C20.9427 91.394 21.1129 91.5512 21.2254 91.7477C21.3597 92.0327 21.43 92.3435 21.4316 92.6584C21.5009 93.6213 21.4198 94.5288 21.4626 95.3769C21.4609 96.1743 21.6901 96.9553 22.1226 97.6258C22.2924 97.8763 22.5146 98.087 22.7738 98.2435C22.8989 98.3151 23.0321 98.3714 23.1706 98.4114C23.4043 98.4631 23.6305 98.5439 23.8439 98.6519C24.2517 98.9317 24.5713 99.3217 24.7652 99.7762C24.932 100.078 25.1296 100.361 25.355 100.622C25.7936 101.148 26.3453 101.568 26.9692 101.852C27.593 102.136 28.2729 102.276 28.9584 102.262C29.6341 102.241 30.2936 102.05 30.8754 101.706C31.4572 101.362 31.9424 100.877 32.286 100.296C32.8851 98.9795 33.1439 97.5338 33.0385 96.0915L32.8524 77.6425L32.8052 73.0298C32.8864 71.5511 32.7683 70.0682 32.4539 68.6209C32.2624 67.9736 31.9149 67.383 31.4418 66.9008C30.9687 66.4186 30.3844 66.0595 29.7401 65.8549C29.0697 65.7425 28.3822 65.7902 27.7339 65.9941C27.0856 66.1981 26.4949 66.5525 26.0102 67.0283C25.4821 67.4927 25.0407 68.0468 24.7065 68.6651C24.5045 68.9884 24.5012 69.2296 24.14 69.7804C23.9336 70.0328 23.6452 70.2051 23.3249 70.2675C23.0733 70.3212 22.9243 70.3344 22.7998 70.3787C22.5164 70.4865 22.2596 70.6539 22.0466 70.8695C21.8337 71.0851 21.6697 71.3438 21.5657 71.6282L21.4999 71.7855L21.469 71.8741C21.3839 72.1114 21.323 72.3567 21.2872 72.6062C21.22 72.9176 21.1765 73.2335 21.157 73.5514C21.1123 74.1188 21.1185 74.8748 21.0645 75.5116C20.9917 76.5964 20.7854 76.8986 20.695 76.7773C20.5505 76.3667 20.4577 75.9398 20.4187 75.5063C20.4164 75.5713 20.2979 74.8234 20.1944 74.0043C20.1468 73.6168 20.1241 73.2268 20.1264 72.8364C20.1286 72.6465 20.1419 72.4569 20.1662 72.2686C20.2241 71.9534 20.311 71.6442 20.4258 71.345L20.4491 71.2889L20.4831 71.2074C20.522 71.1074 20.5733 71.0111 20.6209 70.9137C20.8216 70.5114 21.097 70.1508 21.4324 69.851C21.7897 69.5317 22.2235 69.3099 22.6919 69.2072C22.8488 69.1844 23.0041 69.152 23.1571 69.1103C23.2248 69.0765 23.198 69.1042 23.2657 69.0032C23.3165 68.9161 23.3878 68.7232 23.4759 68.5323C23.5607 68.345 23.6551 68.1626 23.7554 67.9836C23.9588 67.6272 24.1923 67.2889 24.4534 66.9723C24.9769 66.3365 25.6084 65.7977 26.319 65.3804C27.0455 64.9462 27.8623 64.6842 28.7063 64.6146C29.5829 64.5533 30.4568 64.7669 31.2058 65.2257C31.9146 65.679 32.5152 66.2819 32.9654 66.9919C33.4156 67.7019 33.7043 68.5018 33.8114 69.3352C33.9493 70.8603 34.0046 72.3918 33.977 73.9229L34.0235 78.4386L34.198 96.5085C34.2889 98.1304 33.9145 99.7445 33.1188 101.161C32.6365 101.864 31.9891 102.438 31.2333 102.834C30.4775 103.229 29.6362 103.433 28.7829 103.429C27.9409 103.414 27.1126 103.214 26.3558 102.846C25.5989 102.477 24.9318 101.948 24.4011 101.296C23.8518 100.699 23.4942 99.7014 23.2515 99.6532C22.8739 99.5526 22.5085 99.4112 22.1616 99.2314C21.7687 98.9929 21.431 98.6737 21.171 98.295C20.6107 97.4445 20.3082 96.4506 20.2996 95.4327C20.2555 94.4789 20.3342 93.5813 20.2703 92.7439C20.2654 92.6076 20.2483 92.4719 20.2195 92.3385L20.2203 92.3387C20.1528 92.3127 20.0835 92.2919 20.0129 92.2766C19.5296 92.157 19.0618 91.982 18.6188 91.755C18.1402 91.5116 17.7199 91.1677 17.3868 90.747C17.0609 90.3098 16.8454 89.8006 16.7587 89.2626C16.6554 88.3356 16.6094 87.4032 16.6208 86.4706L16.5674 83.7666C16.5571 82.8657 16.5088 81.9716 16.5574 81.0188C16.5759 80.0194 16.8344 79.039 17.3112 78.16C17.4446 77.9354 17.5992 77.7239 17.773 77.5286C17.8915 77.3932 18.019 77.266 18.1547 77.1478L18.2681 77.0514C18.3441 76.9876 18.4276 76.9313 18.5074 76.8716C18.6748 76.7573 18.8507 76.656 19.0335 76.5684C19.4152 76.3885 19.8303 76.2902 20.2523 76.28Z" fill="#2C2C2E"/>
<path d="M23.4323 68.8401C23.4351 68.8263 23.4408 68.8133 23.4491 68.8019C23.4574 68.7906 23.468 68.7811 23.4803 68.7742C23.7096 68.5662 24.2113 68.342 24.5301 69.0676C24.5424 69.0995 24.5496 69.1332 24.5513 69.1674C24.3868 69.7781 24.1944 70.3813 24.0677 71.0024C23.0669 75.6526 22.7229 80.4197 23.0458 85.1651C23.162 87.548 23.3773 89.9301 23.6309 92.3119L24.0332 95.8862L24.1851 97.1293C24.2227 98.0893 24.3881 99.0401 24.677 99.9566C25.066 100.873 25.3089 101.135 25.1261 101.153C24.6847 100.97 24.3193 100.643 24.0906 100.224C23.7936 99.7731 23.5658 99.2805 23.4146 98.7623C23.248 98.2284 23.114 97.6848 23.0136 97.1346L22.4372 92.0733C22.1901 89.7184 21.982 87.3538 21.8726 84.9786C21.5649 80.205 21.922 75.4118 22.9336 70.7361C23.0644 70.0959 23.2621 69.4712 23.4323 68.8401Z" fill="#2C2C2E"/>
<path d="M19.9187 76.0067C19.9182 75.9927 19.9208 75.9788 19.9262 75.9658C19.9316 75.9529 19.9397 75.9413 19.95 75.9318C20.1242 75.6785 20.5604 75.3301 21.04 75.9575C21.0596 75.9857 21.0744 76.0169 21.0839 76.0498L21.0318 77.9666C20.9665 81.7637 21.1133 85.5698 21.2862 89.3813L21.3353 90.4552C21.3353 90.4552 21.2984 92.2287 21.1789 93.4766C21.0292 95.5918 20.7326 94.763 20.5334 93.4654C20.5143 93.6027 20.1683 90.3568 20.1683 90.3568L20.0431 87.5605L19.9251 84.3617C19.8623 82.2271 19.829 80.0884 19.8668 77.947L19.9187 76.0067Z" fill="#2C2C2E"/>
<path d="M102.892 78.6102C102.871 78.61 102.864 78.6101 102.836 78.582C102.703 78.4757 102.594 78.3418 102.518 78.1896C102.446 78.0147 102.429 77.7656 102.8 77.4939C102.835 77.4724 102.874 77.4564 102.914 77.4464C103.336 77.4568 103.751 77.5552 104.133 77.7353C104.316 77.8229 104.491 77.9243 104.659 78.0387C104.739 78.0984 104.822 78.1547 104.898 78.2185L105.011 78.3149C105.147 78.4331 105.274 78.5603 105.393 78.6957C105.567 78.891 105.721 79.1024 105.855 79.327C106.331 80.2059 106.59 81.1861 106.608 82.1854C106.657 83.1381 106.608 84.0322 106.598 84.933L106.545 87.6371C106.556 88.5696 106.51 89.5019 106.407 90.4288C106.32 90.9666 106.104 91.4756 105.779 91.9127C105.446 92.3331 105.026 92.6768 104.547 92.9202C104.104 93.1471 103.637 93.322 103.153 93.4416C103.083 93.4569 103.013 93.4777 102.946 93.5038L102.946 93.5042C102.917 93.6378 102.9 93.7737 102.895 93.9103C102.831 94.7478 102.909 95.6454 102.865 96.5991C102.857 97.6167 102.554 98.6102 101.994 99.4605C101.728 99.8476 101.381 100.173 100.977 100.413C100.768 100.533 100.545 100.628 100.313 100.694C100.17 100.724 100.03 100.769 99.896 100.828C99.6848 101.01 99.5214 101.241 99.4198 101.501C99.2138 101.874 98.9696 102.224 98.6912 102.546C98.1379 103.205 97.4426 103.731 96.6573 104.084C95.872 104.438 95.017 104.609 94.1559 104.587C93.2839 104.557 92.4336 104.308 91.6843 103.861C90.935 103.415 90.311 102.787 89.8706 102.035C89.1683 100.547 88.8573 98.9053 88.9671 97.2644L89.1547 78.7947L89.2024 74.1777C89.213 73.4047 89.2107 72.6476 89.2387 71.8573C89.2488 71.033 89.3746 70.2141 89.6124 69.4245C89.8638 68.5915 90.3179 67.8335 90.9344 67.2184C91.5508 66.6034 92.3102 66.1503 93.1449 65.8997C93.9973 65.7398 94.8757 65.7859 95.7066 66.0342C96.5375 66.2825 97.2968 66.7257 97.921 67.3268C98.5524 67.8818 99.08 68.5443 99.4792 69.2834C99.6762 69.6205 99.8589 70.1475 99.9364 70.2324C99.9686 70.266 99.9569 70.268 100.102 70.3078C100.305 70.3409 100.507 70.3851 100.705 70.4402C101.148 70.5959 101.552 70.8454 101.89 71.1715C102.227 71.4976 102.49 71.8926 102.66 72.3295L102.748 72.5392L102.789 72.6554C102.898 72.9634 102.977 73.2816 103.024 73.6053C103.05 73.9819 103.043 74.36 103.002 74.7353C102.94 75.3638 102.785 76.1064 102.663 76.7086C102.49 77.7291 102.441 78.0571 102.308 77.9581C102.098 77.5485 102 77.0911 102.023 76.6317C101.999 76.7019 102.012 75.894 102.008 75.1211C102.006 74.773 101.983 74.4254 101.938 74.0801C101.918 73.9327 101.89 73.7865 101.853 73.6423C101.809 73.4006 101.742 73.1635 101.654 72.9339L101.637 72.892L101.611 72.8308C101.583 72.7549 101.544 72.6857 101.509 72.6137C101.375 72.3399 101.189 72.0942 100.962 71.8899C100.756 71.7035 100.506 71.5736 100.234 71.5126C100.018 71.4812 99.8054 71.4321 99.5975 71.3656C99.2914 71.2494 99.0377 71.0265 98.8833 70.7381C98.7526 70.4949 98.7016 70.33 98.6293 70.1806C98.5589 70.025 98.4801 69.8731 98.3967 69.7238C98.2266 69.4262 98.0315 69.1436 97.8134 68.879C97.3774 68.3495 96.8517 67.9005 96.2602 67.5524C95.7196 67.1854 95.0873 66.9759 94.4342 66.9471C93.7811 66.9184 93.1329 67.0715 92.562 67.3895C92 67.7552 91.5249 68.2392 91.17 68.8074C90.8151 69.3757 90.589 70.0146 90.5075 70.6793C90.3803 72.1516 90.3296 73.6295 90.3554 75.1071L90.3091 79.6185L90.1344 97.6573C90.0451 99.0571 90.3525 100.454 91.0212 101.687C91.3978 102.229 91.901 102.671 92.4873 102.975C93.0735 103.279 93.7251 103.436 94.3857 103.432C95.0561 103.415 95.7149 103.254 96.3164 102.958C96.9179 102.662 97.4476 102.239 97.869 101.718C98.0847 101.457 98.2742 101.176 98.4346 100.878C98.6305 100.42 98.9659 100.035 99.3931 99.7789C99.7409 99.6792 100.08 99.5519 100.408 99.3983C100.66 99.2433 100.877 99.0363 101.042 98.7912C101.475 98.121 101.704 97.3404 101.702 96.5433C101.745 95.6954 101.664 94.7878 101.733 93.8248C101.735 93.5096 101.805 93.1986 101.94 92.9135C102.052 92.7167 102.223 92.5592 102.428 92.4623C102.568 92.3985 102.714 92.3494 102.864 92.3157C103.258 92.2187 103.64 92.0769 104.002 91.893C104.335 91.741 104.624 91.5084 104.844 91.2163C105.064 90.9241 105.207 90.5817 105.261 90.2202C105.35 89.3545 105.39 88.4844 105.38 87.6142L105.433 84.9102C105.449 83.1143 105.64 81.2665 104.854 79.923C104.757 79.7596 104.645 79.606 104.519 79.4642C104.434 79.3665 104.342 79.2749 104.244 79.19L104.163 79.1213L103.996 78.9954C103.883 78.9184 103.764 78.8498 103.641 78.7899C103.406 78.6784 103.151 78.6172 102.892 78.6102Z" fill="#2C2C2E"/>
<path d="M98.6151 70.3339C98.6105 70.3208 98.6088 70.307 98.6101 70.2932C98.6114 70.2794 98.6156 70.2661 98.6226 70.2542C98.6406 70.1425 98.6895 70.0381 98.7638 69.9526C98.838 69.8671 98.9346 69.804 99.0429 69.7704C99.1511 69.7368 99.2665 69.734 99.3763 69.7623C99.486 69.7907 99.5856 69.849 99.6639 69.9308C99.6913 69.9521 99.715 69.9777 99.7341 70.0066C99.904 70.6378 100.101 71.2625 100.232 71.9028C101.257 76.6588 101.609 81.5345 101.28 86.3881C101.161 88.803 100.943 91.2068 100.687 93.6009L100.283 97.1863L100.127 98.4552C100.127 98.4552 100.042 98.9015 99.864 99.5029C99.6767 100.176 99.3792 100.814 98.9835 101.391C98.7779 101.71 98.506 101.981 98.1862 102.185C98.0031 102.29 97.9264 102.28 97.926 102.201C97.9237 102.04 98.2178 101.618 98.4344 101.05C98.5971 100.607 98.7249 100.153 98.8166 99.6902C98.905 99.1799 98.9652 98.665 98.9969 98.1481L99.5696 93.1185C99.8153 90.7767 100.021 88.4345 100.129 86.0917C100.432 81.4256 100.084 76.7401 99.0978 72.1691C98.9714 71.548 98.7793 70.9447 98.6151 70.3339Z" fill="#2C2C2E"/>
<path d="M102.082 77.2163C102.081 77.2025 102.082 77.1886 102.087 77.1754C102.091 77.1623 102.099 77.1503 102.108 77.1402C102.264 76.8804 102.673 76.49 103.197 77.0834C103.219 77.1104 103.236 77.1408 103.248 77.1733L103.299 79.1136C103.362 82.9539 103.212 86.7839 103.036 90.6004L102.986 91.6753C102.986 91.6753 102.784 93.4379 102.549 94.6693C102.203 96.7614 101.985 95.9086 101.907 94.5982C101.876 94.7332 101.833 91.4694 101.833 91.4694L101.958 88.6781L102.076 85.4932C102.138 83.371 102.171 81.2502 102.134 79.1332L102.082 77.2163Z" fill="#2C2C2E"/>
<path d="M24.7535 77.25C24.7551 77.2634 24.7537 77.277 24.7493 77.2898C24.7449 77.3026 24.7378 77.3142 24.7283 77.3239C24.5745 77.57 24.17 77.986 23.6398 77.3856C23.6178 77.3577 23.6004 77.3265 23.5883 77.2932C23.4835 74.3547 24.17 71.442 25.5761 68.8584C25.7715 68.4819 26.029 68.1408 26.3378 67.8497C26.6887 67.571 27.1128 67.3994 27.5591 67.3558C28.2636 67.3056 28.9717 67.3632 29.6588 67.5266C30.049 67.597 30.4045 67.7953 30.6692 68.0901C30.7976 68.2664 30.7819 68.3458 30.7058 68.3487C30.3249 68.2377 29.9317 68.1742 29.5352 68.1596C29.6073 68.1672 28.8706 68.1619 28.1061 68.2694C27.8147 68.2968 27.5339 68.3923 27.2864 68.5482C27.1902 68.6161 27.1044 68.6976 27.0315 68.7901C26.8587 68.9809 26.7109 69.193 26.5918 69.4212C25.2902 71.8203 24.6554 74.5234 24.7535 77.2501L24.7535 77.25Z" fill="#C7C7CC"/>
<path d="M93.2954 69.1886C93.2765 69.1981 93.27 69.2014 93.2319 69.1893C93.0641 69.1565 92.9057 69.0865 92.7686 68.9846C92.6252 68.8606 92.4995 68.646 92.7027 68.2374C92.7242 68.2023 92.7509 68.1707 92.782 68.1435C93.4947 67.8137 94.3002 67.7412 95.0606 67.9386C95.8127 68.12 96.4996 68.5063 97.0449 69.0543C97.5579 69.5756 97.9766 70.1817 98.2823 70.8458C98.8346 72.1067 99.2345 73.4287 99.4738 74.784C99.7186 76.1152 99.8637 77.4627 99.9078 78.8154C99.9382 79.4884 99.9403 80.16 99.9353 80.8303L99.9101 82.023C99.9101 82.023 99.7236 83.8032 99.4584 85.0296C99.0697 87.1164 98.8702 86.256 98.8181 84.9472C98.8013 85.0142 98.7981 84.233 98.7875 83.4381C98.7709 82.6393 98.7542 81.8352 98.7542 81.8352L98.7749 80.5887C98.7807 79.9455 98.7663 79.3044 98.739 78.6649C98.6903 77.3916 98.5453 76.1237 98.3049 74.8722C98.0821 73.6396 97.7128 72.4379 97.205 71.2925C96.9962 70.7644 96.6705 70.2903 96.2524 69.9054C95.8343 69.5206 95.3345 69.235 94.7903 69.0699C94.2932 68.9362 93.7651 68.9781 93.2954 69.1886Z" fill="#C7C7CC"/>
<g opacity="0.5">
<path opacity="0.5" d="M36.6987 90.0272C36.685 90.0295 36.671 90.0288 36.6576 90.0252C36.6442 90.0216 36.6317 90.0152 36.6211 90.0063C36.3522 89.8678 35.935 89.4849 36.4956 88.9251C36.5213 88.9018 36.5506 88.8829 36.5824 88.869L38.523 88.7002C40.1373 88.5837 41.7542 88.5184 43.3736 88.5044L44.4594 88.5038C44.4594 88.5038 46.2467 88.6366 47.4842 88.8793C49.5847 89.2421 48.7166 89.4486 47.4132 89.5198C47.4805 89.5356 46.7007 89.5522 45.9059 89.5854L44.3012 89.6621L43.3838 89.664C41.7905 89.6778 40.1989 89.7433 38.6088 89.8602L36.6987 90.0272Z" fill="#48484A"/>
</g>
<g opacity="0.5">
<path opacity="0.5" d="M80.4214 90.7587C80.4087 90.7594 80.4041 90.7598 80.3851 90.7331C80.2694 90.5794 80.1988 90.3966 80.1815 90.2051C80.1641 90.0136 80.2006 89.8211 80.2867 89.6492C80.2957 89.6302 80.3082 89.613 80.3237 89.5988L85.2702 89.1884C85.7328 89.2193 86.1928 89.2801 86.6475 89.3704C87.6141 89.5378 87.2577 89.8258 86.683 90.0129C86.7464 90.033 85.2991 90.3492 85.2991 90.3492C85.2991 90.3492 80.4895 90.753 80.4214 90.7587Z" fill="#48484A"/>
</g>
<g opacity="0.5">
<path opacity="0.5" d="M53.313 90.0418C53.3111 90.0556 53.3063 90.0688 53.2988 90.0806C53.2913 90.0924 53.2813 90.1024 53.2696 90.11C53.0559 90.3278 52.566 90.6038 52.199 89.9038C52.1845 89.8726 52.1752 89.8392 52.1714 89.805L52.5654 87.9161C52.8992 86.2903 53.2767 84.6295 53.5208 83.0705L53.5662 82.0141L53.6978 80.9794C53.7993 80.3073 53.9645 79.6464 54.1913 79.0055C54.5467 77.9834 54.7928 77.7342 54.8599 77.8694C54.9093 78.3054 54.8935 78.7464 54.8132 79.1778C54.8401 79.1154 54.7281 79.8709 54.7085 80.6433C54.6936 81.0299 54.7041 81.4121 54.7095 81.7295L54.7182 82.2464L54.6768 83.1843C54.4093 84.9219 54.0394 86.512 53.7062 88.1528L53.313 90.0418Z" fill="#48484A"/>
</g>
<g opacity="0.5">
<path opacity="0.5" d="M57.0797 71.7544C57.0759 71.7412 57.0749 71.7273 57.077 71.7137C57.079 71.7 57.084 71.687 57.0916 71.6755C57.1157 71.565 57.1702 71.4634 57.249 71.3821C57.3278 71.3009 57.4277 71.2431 57.5376 71.2154C57.6474 71.1877 57.7628 71.1912 57.8708 71.2253C57.9788 71.2595 58.0752 71.323 58.149 71.4088C58.1752 71.4317 58.1975 71.4586 58.215 71.4887C58.3567 72.1291 58.5052 72.7686 58.5996 73.4158C59.0934 76.8109 59.3207 80.2393 59.2795 83.6697C59.3016 85.3696 59.3232 87.0634 59.3932 88.7491C59.4407 89.5899 59.4797 90.4321 59.5615 91.2672L59.6155 91.8996L59.682 92.4552L59.7255 93.4843C59.7612 94.0418 59.8071 94.7603 59.8505 95.4389C60.057 97.5313 59.6314 96.7961 59.2103 95.5268C59.0506 95.0406 58.922 94.5447 58.8252 94.0422C58.6417 93.2523 58.5098 92.4356 58.5098 92.4356C58.4876 92.2482 58.4608 92.0609 58.4477 91.8733L58.3784 91.068C58.2973 90.2256 58.2665 89.3836 58.2231 88.5425C58.1508 86.8599 58.1395 85.1844 58.1141 83.5142C58.1515 80.2007 57.9297 76.8894 57.4509 73.6104C57.3596 72.9837 57.2159 72.37 57.0797 71.7544Z" fill="#48484A"/>
</g>
<g opacity="0.5">
<path opacity="0.5" d="M63.1219 102.555C63.1217 102.569 63.1184 102.583 63.1124 102.595C63.1064 102.608 63.0977 102.619 63.0869 102.628C62.9004 102.869 62.4466 103.199 61.9998 102.545C61.9817 102.515 61.9685 102.483 61.9607 102.45L62.1293 100.528L64.222 76.5912C64.222 76.5912 64.4949 74.8381 64.7798 73.6167C65.2101 71.5394 65.3937 72.399 65.4183 73.7111C65.4554 73.5774 65.3659 76.8402 65.3659 76.8402L63.2897 100.633L63.1219 102.555Z" fill="#48484A"/>
</g>
<g opacity="0.5">
<path opacity="0.5" d="M67.2023 65.7245C67.2 65.7108 67.2006 65.6967 67.2042 65.6832C67.2078 65.6697 67.2143 65.6571 67.2232 65.6464C67.3617 65.3738 67.7461 64.9615 68.3059 65.5169C68.3291 65.5423 68.348 65.5712 68.3619 65.6027L68.5527 67.5231L70.4082 86.1651C70.4082 86.1651 70.465 87.9382 70.4113 89.1899C70.3734 91.3088 70.0333 90.4949 69.7658 89.2093C69.7541 89.3471 69.2372 86.1239 69.2372 86.1239L67.3938 67.6439L67.2023 65.7245Z" fill="#48484A"/>
</g>
<g opacity="0.5">
<path opacity="0.5" d="M72.9276 95.732C72.9257 95.7458 72.9207 95.759 72.9132 95.7707C72.9056 95.7825 72.8956 95.7924 72.8838 95.7999C72.6686 96.0163 72.1769 96.289 71.8146 95.5866C71.8003 95.5553 71.7912 95.5219 71.7876 95.4876L72.1942 93.6014L73.2529 88.6967L73.4796 87.6453C73.4796 87.6453 73.9687 85.9398 74.4033 84.7637C75.0889 82.7567 75.1638 83.6337 75.0247 84.939C75.0781 84.811 74.5828 88.0376 74.5828 88.0376L74.3886 88.9402L73.3334 93.8456L72.9276 95.732Z" fill="#48484A"/>
</g>
<g opacity="0.5">
<path opacity="0.5" d="M75.8949 77.7141C75.8919 77.7005 75.8918 77.6864 75.8947 77.6728C75.8976 77.6591 75.9034 77.6462 75.9117 77.635C76.0358 77.3556 76.3977 76.9219 76.9857 77.4462C77.0102 77.4703 77.0306 77.4983 77.046 77.5289L77.3372 79.4386L77.4886 80.4518L77.6509 81.5164C77.6509 81.5164 77.8007 83.2864 77.8126 84.5394C77.8855 86.6578 77.503 85.8607 77.1688 84.5916C77.1642 84.7295 76.48 81.5407 76.48 81.5407L76.3407 80.6292L76.1861 79.619L75.8949 77.7141Z" fill="#48484A"/>
</g>
<path d="M18.0921 78.2048C18.0965 78.2135 18.0989 78.2231 18.0993 78.2328C18.0997 78.2425 18.098 78.2522 18.0944 78.2612C18.0581 78.4708 17.8913 78.8351 17.4024 78.5833C17.3816 78.5712 17.3629 78.5557 17.347 78.5375C17.3366 78.5131 17.141 78.053 16.8534 77.3764L16.8262 77.3124L16.7885 77.2237C16.641 76.8963 16.5214 76.5561 16.3973 76.216C15.874 74.8381 15.4284 73.4321 15.0625 72.0045C14.2852 69.0118 13.8403 65.9427 13.7359 62.8527C13.4716 56.1641 14.9957 49.5259 18.1518 43.6198C19.8315 40.5402 21.8719 37.6708 24.2302 35.0721C26.6628 32.4353 29.3795 30.0744 32.3309 28.0325C35.3398 25.9821 38.563 24.2641 41.9436 22.9088C45.3538 21.5674 48.8927 20.5784 52.5049 19.9572C59.7026 18.7514 67.058 18.8356 74.2261 20.2059C79.5427 20.9511 84.592 22.9978 88.9241 26.1634C90.3398 27.1554 91.698 28.227 92.992 29.3728C103.252 38.5002 108.716 51.3002 108.332 62.2834C108.291 64.8996 108.031 67.5078 107.554 70.0807C107.328 71.3048 107.067 72.4881 106.79 73.6329C106.618 74.2755 106.452 74.8994 106.29 75.5045L106.182 75.8666L106.088 76.1819C105.845 76.8484 105.567 77.5022 105.258 78.1409C104.631 79.49 104.646 78.8667 104.838 77.9728C104.814 78.0149 104.951 77.4866 105.086 76.9468C105.211 76.4047 105.339 75.851 105.339 75.851L105.43 75.5441L105.479 75.3822L105.506 75.2903C105.626 74.839 105.751 74.3717 105.881 73.8883C107.13 69.2239 107.663 64.3974 107.462 59.5734C107.327 56.8243 106.883 54.0991 106.138 51.4492C105.308 48.6177 104.201 45.8743 102.834 43.2586C99.8648 37.5908 95.7632 32.5906 90.7827 28.5665C88.1791 26.4274 85.2992 24.6476 82.2204 23.2749C78.9946 22.0207 75.6318 21.1509 72.2017 20.6836C68.7172 20.1282 65.1909 19.8767 61.6627 19.9317C58.1053 19.9694 54.5596 20.3462 51.0739 21.0569C44.0954 22.4236 37.4987 25.291 31.7423 29.4596C28.9239 31.4965 26.3526 33.8541 24.0805 36.4847C21.8448 39.0395 19.9416 41.866 18.4161 44.8972C15.524 50.6748 14.2023 57.1091 14.5831 63.5566C14.7327 66.5428 15.2082 69.5038 16.0009 72.3871C16.1946 73.0851 16.4214 73.7676 16.627 74.4498C16.8695 75.1198 17.11 75.784 17.3483 76.4424L17.6142 77.0818C17.8924 77.7357 18.0818 78.1807 18.0921 78.2048Z" fill="#2C2C2E"/>
<path d="M106.431 81.3515C106.429 81.3611 106.425 81.3702 106.419 81.3781C106.414 81.3861 106.406 81.3927 106.398 81.3975C106.24 81.5416 105.888 81.7126 105.659 81.2077C105.65 81.1853 105.645 81.1616 105.643 81.1375C105.65 81.1122 105.778 80.6352 105.965 79.9339C106.076 79.5085 106.19 79.0748 106.305 78.6327C106.693 77.1079 107.065 75.5505 107.404 73.9601C108.119 70.6889 108.607 67.3724 108.865 64.0342C109.123 60.5242 108.967 56.996 108.402 53.5222C107.756 49.9075 106.721 46.3728 105.316 42.9796C103.921 39.4557 102.096 36.1172 99.8811 33.0398C97.5692 29.9281 94.8133 27.171 91.7012 24.8563C85.3338 20.1145 77.8627 17.0676 69.9907 16.0023C66.0604 15.4471 62.0815 15.3175 58.1234 15.6158C54.1957 15.9413 50.2984 16.5636 46.465 17.4772C42.6908 18.3329 39.0191 19.5885 35.512 21.2226C32.1058 22.8269 28.9734 24.9558 26.2295 27.5312C23.593 30.0356 21.3331 32.9074 19.5198 36.0574C19.0882 36.8351 18.6056 37.5878 18.2549 38.3775C17.8875 39.172 17.5498 39.9846 17.2219 40.794C16.5726 42.417 15.9678 44.0346 15.4074 45.6466C14.8219 47.2099 14.3665 48.8187 14.0459 50.4567C13.8695 51.2625 13.7334 52.069 13.6158 52.8722C13.4759 53.672 13.3907 54.4725 13.3036 55.2659C12.9756 58.3288 12.922 61.4148 13.1434 64.4872C13.3469 67.3122 13.7855 70.1154 14.4548 72.8677L14.9656 74.7972C15.1585 75.4247 15.3488 76.0435 15.5366 76.6538C15.7478 77.2561 15.956 77.8496 16.161 78.4345L16.2343 78.6293L16.3716 78.9755L16.491 79.277C16.491 79.277 16.8531 80.457 17.1084 81.2892C17.5455 82.7036 17.1464 82.248 16.6845 81.4454C16.6971 81.4924 16.4351 81.0074 16.1795 80.5046C15.9397 79.9945 15.6948 79.4736 15.6948 79.4736L15.5749 79.1715L15.5117 79.0122L15.4759 78.9217C15.3018 78.4318 15.1216 77.9244 14.9352 77.3997C13.2044 72.282 12.2835 66.9262 12.2057 61.5252C12.1601 58.4413 12.3857 55.3592 12.8799 52.3146C12.9894 51.5225 13.1599 50.7345 13.3209 49.9382C13.4718 49.1266 13.6741 48.3253 13.9265 47.5393C14.4179 45.9612 14.9758 44.3895 15.5699 42.8041C16.1689 41.2197 16.7887 39.6239 17.52 38.0287C17.8835 37.214 18.3563 36.4749 18.786 35.7021C19.2171 34.9237 19.6885 34.1682 20.1982 33.4387C22.2209 30.3849 24.6885 27.6493 27.5197 25.3221C30.4657 22.9385 33.7416 20.9927 37.2456 19.5451C40.8314 18.0906 44.5473 16.9787 48.3433 16.2241C52.1847 15.3947 56.0878 14.8811 60.0133 14.6882C63.9825 14.5217 67.958 14.7867 71.8698 15.4786C79.7222 16.8289 87.1034 20.1446 93.3234 25.1158L94.464 26.0442C94.8378 26.3602 95.1853 26.7056 95.5467 27.0344C96.2666 27.6952 96.9815 28.3587 97.6459 29.0753C98.9724 30.4915 100.187 32.0078 101.28 33.6108C103.404 36.7654 105.149 40.158 106.48 43.7188C107.83 47.1436 108.794 50.7074 109.356 54.3446C109.844 57.8434 109.93 61.3864 109.612 64.9046C109.318 68.2308 108.8 71.5335 108.061 74.79C107.71 76.368 107.334 77.9123 106.945 79.4234C106.879 79.6728 106.813 79.9175 106.749 80.1576C106.564 80.8528 106.438 81.3258 106.431 81.3515Z" fill="#2C2C2E"/>
</svg>
