<svg width="80" height="80" viewBox="0 0 80 80" fill="none" xmlns="http://www.w3.org/2000/svg">
<path d="M40.0004 4.44444C32.9682 4.44444 26.0939 6.52974 20.2468 10.4366C14.3997 14.3435 9.84246 19.8965 7.15135 26.3935C4.46023 32.8904 3.75611 40.0394 5.12803 46.9365C6.49995 53.8336 9.88629 60.169 14.8588 65.1416C19.8314 70.1141 26.1668 73.5005 33.0639 74.8724C39.961 76.2443 47.11 75.5402 53.6069 72.8491C60.1038 70.1579 65.6569 65.6007 69.5638 59.7536C73.4707 53.9065 75.556 47.0322 75.556 40C75.556 30.5701 71.8099 21.5264 65.142 14.8584C58.474 8.19046 49.4303 4.44444 40.0004 4.44444ZM40.0004 71.1111C33.8472 71.1111 27.8322 69.2865 22.716 65.8679C17.5998 62.4494 13.6122 57.5905 11.2575 51.9057C8.90275 46.2209 8.28665 39.9655 9.48708 33.9305C10.6875 27.8956 13.6506 22.3521 18.0015 18.0011C22.3525 13.6502 27.896 10.6871 33.9309 9.48668C39.9659 8.28625 46.2213 8.90235 51.9061 11.2571C57.5909 13.6118 62.4498 17.5994 65.8683 22.7156C69.2869 27.8318 71.1115 33.8468 71.1115 40C71.1115 48.2512 67.8337 56.1644 61.9993 61.9989C56.1648 67.8333 48.2516 71.1111 40.0004 71.1111Z" fill="#FFD233"/>
<path d="M62.2222 26.8889C61.8058 26.475 61.2426 26.2427 60.6555 26.2427C60.0684 26.2427 59.5052 26.475 59.0889 26.8889L34.4222 51.4444L21.0889 38.1111C20.6822 37.672 20.1178 37.4125 19.5197 37.3896C18.9217 37.3666 18.339 37.5822 17.9 37.9889C17.4609 38.3955 17.2013 38.96 17.1784 39.558C17.1555 40.156 17.3711 40.7387 17.7777 41.1778L34.4222 57.7778L62.2222 30.0444C62.4305 29.8379 62.5958 29.5921 62.7086 29.3213C62.8214 29.0505 62.8795 28.76 62.8795 28.4667C62.8795 28.1733 62.8214 27.8828 62.7086 27.612C62.5958 27.3412 62.4305 27.0955 62.2222 26.8889Z" fill="#FFD233"/>
</svg>
