<svg width="87" height="81" viewBox="0 0 87 81" fill="none" xmlns="http://www.w3.org/2000/svg">
<path d="M74.2619 76.9144C74.7868 77.8971 73.9613 79.3019 72.8496 79.3178C71.8979 73.9513 70.8712 68.3981 67.7734 63.919C61.8421 55.3426 49.6189 52.5256 44.5406 43.4154C41.0829 45.8832 35.7956 45.2543 33.0098 42.0433C31.2772 40.0464 28.2572 39.8013 25.6554 40.2468C23.0536 40.6923 20.5116 41.6771 17.8734 41.5935C16.7287 41.5571 15.4814 41.2484 14.8152 40.3142C14.1489 39.38 14.5338 37.7358 15.6676 37.573C20.6069 36.864 25.5463 36.155 30.4856 35.446C30.8735 35.3904 31.2851 35.3241 31.5796 35.0649C31.9127 34.7716 32.0174 34.3027 32.1038 33.8666C32.8188 30.2577 33.334 25.9555 30.6841 23.4106C28.4879 21.3014 25.0216 21.3742 22.0379 21.9626C19.0541 22.551 15.9791 23.5191 13.0386 22.7422C10.0981 21.9652 7.63898 18.4623 9.22416 15.86C10.2859 14.117 9.08875 11.7925 7.45099 10.5783C5.81327 9.36415 3.77514 8.76606 2.18774 7.48643C0.600331 6.20679 -0.407103 3.73768 0.857302 2.13649C1.41339 1.43228 2.2841 1.06126 3.13835 0.791023C5.96557 -0.103371 9.11804 -0.171563 11.8433 0.998617C14.5686 2.1688 16.7816 4.67692 17.2252 7.61639C17.5864 10.0111 16.8999 12.7971 18.4786 14.6301C20.5425 17.0266 24.3572 15.6825 27.5148 15.6536C30.7442 15.6241 33.9377 17.3412 35.7004 20.0549C37.4631 22.7687 37.7385 26.3919 36.4063 29.3422C40.1574 25.5148 45.2099 22.5786 50.5575 22.7786C55.4971 22.9632 60.0357 25.8124 63.3392 29.4995C66.6427 33.1867 68.8964 37.6773 71.1064 42.1112C71.9297 43.7631 74.018 44.6582 75.7776 44.1139C77.5372 43.5693 78.7592 41.6496 78.5112 39.8198C80.0447 40.155 80.2045 42.2339 80.2517 43.8071C80.3507 47.1127 81.5445 50.3758 83.6002 52.9619C84.2877 51.6896 84.8126 50.3289 85.1573 48.9241C86.6576 50.6541 87.2175 53.1577 86.5972 55.3644C85.9769 57.5712 84.196 59.4131 82.0154 60.1026C80.8552 60.4696 79.4367 60.6458 78.8604 61.7205C81.0364 65.5411 82.9077 69.536 84.4512 73.6544C85.2785 75.8629 85.8756 78.7049 84.1338 80.2905C82.1199 78.7996 80.9751 76.4344 79.9066 74.164C78.2401 70.6225 76.5732 67.0811 74.9062 63.5397" fill="white"/>
</svg>
