<svg width="283" height="209" viewBox="0 0 283 209" fill="none" xmlns="http://www.w3.org/2000/svg">
<g opacity="0.6" filter="url(#filter0_f_22_5918)">
<rect width="110.15" height="172.753" rx="5.82339" transform="matrix(-0.866044 0.499967 -0.866044 -0.499967 264.006 133.929)" fill="url(#paint0_linear_22_5918)"/>
</g>
<rect width="110.15" height="172.753" rx="5.82339" transform="matrix(-0.866044 0.499967 -0.866044 -0.499967 264.006 133.929)" fill="url(#paint1_linear_22_5918)"/>
<mask id="mask0_22_5918" style="mask-type:alpha" maskUnits="userSpaceOnUse" x="21" y="49" width="241" height="139">
<rect width="110.15" height="172.753" rx="5.82339" transform="matrix(-0.866044 0.499967 -0.866044 -0.499967 264.006 133.929)" fill="url(#paint2_linear_22_5918)"/>
</mask>
<g mask="url(#mask0_22_5918)">
<path d="M168.523 115.367L200.359 133.746L168.523 152.125L168.523 115.367Z" fill="url(#paint3_linear_22_5918)" fill-opacity="0.6"/>
<path d="M73.0138 96.9875L104.85 115.367L136.686 96.9875L73.0138 96.9875Z" fill="url(#paint4_linear_22_5918)" fill-opacity="0.6"/>
<path d="M200.359 133.746L232.195 152.125L200.359 170.504L200.359 133.746Z" fill="url(#paint5_linear_22_5918)" fill-opacity="0.6"/>
<path d="M104.85 115.367L136.686 133.746L168.523 115.367L104.85 115.367Z" fill="url(#paint6_linear_22_5918)" fill-opacity="0.6"/>
<path d="M200.359 96.9875L232.195 115.367L200.359 133.746L200.359 96.9875Z" fill="url(#paint7_linear_22_5918)" fill-opacity="0.6"/>
<path d="M104.85 78.6084L136.687 96.9875L168.523 78.6084L104.85 78.6084Z" fill="url(#paint8_linear_22_5918)" fill-opacity="0.6"/>
<path d="M232.195 115.367L264.032 133.746L232.195 152.125L232.195 115.367Z" fill="url(#paint9_linear_22_5918)" fill-opacity="0.6"/>
<path d="M136.687 96.9875L168.523 115.367L200.359 96.9875L136.687 96.9875Z" fill="url(#paint10_linear_22_5918)" fill-opacity="0.6"/>
<path d="M136.686 133.746L168.523 152.125L136.686 170.504L136.686 133.746Z" fill="url(#paint11_linear_22_5918)" fill-opacity="0.6"/>
<path d="M41.1774 115.367L73.0137 133.746L104.85 115.367L41.1774 115.367Z" fill="url(#paint12_linear_22_5918)" fill-opacity="0.6"/>
<path d="M168.523 152.125L200.359 170.504L168.523 188.883L168.523 152.125Z" fill="url(#paint13_linear_22_5918)" fill-opacity="0.6"/>
<path d="M73.0137 133.746L104.85 152.125L136.686 133.746L73.0137 133.746Z" fill="url(#paint14_linear_22_5918)" fill-opacity="0.6"/>
</g>
<g opacity="0.6">
<rect width="20.2074" height="26.5469" rx="2.42641" transform="matrix(-0.866044 0.499967 -0.866044 -0.499967 99.6396 94.1109)" fill="url(#paint15_linear_22_5918)" stroke="#397026" stroke-width="0.485282"/>
<rect width="13.8678" height="5.54712" rx="2.42641" transform="matrix(-0.866044 0.499967 -0.866044 -0.499967 87.9727 90.1489)" stroke="#397026" stroke-width="0.485282"/>
<path d="M73.1709 82.7923L82.7698 88.3337" stroke="#397026" stroke-width="0.485282"/>
<path d="M86.5723 90.5287L96.1712 96.0702" stroke="#397026" stroke-width="0.485282"/>
<path d="M68.0166 85.7678L77.086 91.0036" stroke="#397026" stroke-width="0.485282"/>
<path d="M81.9331 93.8018L91.0025 99.0376" stroke="#397026" stroke-width="0.485282"/>
<path d="M62.8623 88.7433L72.4612 94.2848" stroke="#397026" stroke-width="0.485282"/>
<path d="M76.2637 96.4798L85.8626 102.021" stroke="#397026" stroke-width="0.485282"/>
</g>
<path d="M233.534 128.042L238.474 130.894L233.534 133.746L233.534 128.042Z" fill="#C59FE2"/>
<path d="M218.714 125.19L223.654 128.042L228.594 125.19L218.714 125.19Z" fill="#C59FE2"/>
<path d="M238.474 130.894L243.414 133.746L238.474 136.598L238.474 130.894Z" fill="#C59FE2"/>
<path d="M223.654 128.042L228.594 130.894L233.534 128.042L223.654 128.042Z" fill="#C59FE2"/>
<g filter="url(#filter1_i_22_5918)">
<path d="M84.7932 76.7522L87.2314 75.3446L86.5905 74.9747L86.9921 74.7428L88.4619 75.3677L85.4283 77.1189L84.7932 76.7522Z" fill="url(#paint16_linear_22_5918)"/>
<path d="M90.4785 77.239C90.7045 77.1085 90.9058 77.046 91.0824 77.0515C91.259 77.057 91.4831 77.1381 91.7546 77.2949L93.3013 78.1878C93.5728 78.3445 93.7133 78.4739 93.7228 78.5758C93.7342 78.6789 93.6269 78.7956 93.401 78.9261L93.2073 79.0379C93.0611 79.1223 92.9262 79.1738 92.8028 79.1925C92.6813 79.2122 92.4819 79.2034 92.2046 79.1662L89.362 78.7649L91.1109 79.7746L91.5552 79.5181L91.954 79.9292L91.7147 80.0673C91.4888 80.1977 91.2865 80.2597 91.108 80.2531C90.9314 80.2476 90.7073 80.1665 90.4358 80.0097L87.9036 78.5479L88.177 78.39C88.31 78.3133 88.44 78.27 88.5673 78.2601C88.6964 78.2513 88.8768 78.2623 89.1085 78.293L92.4724 78.7551L92.8655 78.5282L91.1507 77.5382L90.5298 77.8967L90.0883 77.4642L90.4785 77.239Z" fill="url(#paint17_linear_22_5918)"/>
<path d="M93.0819 81.5374C92.8104 81.3806 92.6689 81.2507 92.6575 81.1476C92.648 81.0457 92.7563 80.9295 92.9823 80.799L93.2272 80.6576L93.9735 80.9404L93.5519 81.1838L95.1755 82.1211C95.2913 82.188 95.3863 82.222 95.4603 82.2231C95.5363 82.2252 95.6284 82.1951 95.7366 82.1326L95.956 82.006C96.0661 81.9424 96.1193 81.8887 96.1155 81.8448C96.1136 81.7999 96.0557 81.7445 95.9417 81.6788L94.9249 81.0917L95.4148 80.8089L96.3206 81.3318C96.4345 81.3976 96.5285 81.431 96.6026 81.4321C96.6766 81.4332 96.7687 81.402 96.8788 81.3384L97.0298 81.2512C97.1418 81.1866 97.1969 81.1328 97.195 81.0901C97.1931 81.0473 97.1352 80.9931 97.0213 80.9273L95.5344 80.0689L95.1584 80.286L94.6742 79.8782L94.8622 79.7697C95.0882 79.6392 95.2894 79.5767 95.466 79.5822C95.6426 79.5877 95.8667 79.6688 96.1383 79.8256L97.7675 80.7661C98.0391 80.9229 98.1796 81.0523 98.1891 81.1542C98.1986 81.2562 98.0904 81.3724 97.8644 81.5028L97.5909 81.6607C97.4143 81.7626 97.2406 81.8136 97.0697 81.8136C96.8988 81.8136 96.688 81.761 96.4373 81.6557C96.6557 81.8081 96.7716 81.9452 96.7848 82.0668C96.7981 82.1885 96.7108 82.3036 96.5228 82.4122L96.2066 82.5947C95.9598 82.7372 95.7366 82.8046 95.5373 82.7969C95.3398 82.7882 95.1043 82.7049 94.8309 82.547L93.0819 81.5374Z" fill="url(#paint18_linear_22_5918)"/>
<path d="M98.9838 84.984L99.6817 84.5811L97.4001 83.2639L97.9043 82.9729L102.037 83.1916L102.698 83.5731L100.821 84.6567L101.55 85.0777L101.046 85.3687L100.317 84.9478L99.619 85.3507L98.9838 84.984ZM100.186 84.29L101.533 83.5122L98.5395 83.3396L100.186 84.29Z" fill="url(#paint19_linear_22_5918)"/>
<path d="M105.136 86.9473L106.976 86.0824L109.577 87.5837L109.013 87.8501L106.911 86.6366L106.259 86.9342C106.543 87.0679 106.789 87.188 106.996 87.2943C107.205 87.4017 107.39 87.502 107.552 87.5952C108.049 87.8824 108.337 88.1472 108.415 88.3895C108.495 88.6306 108.364 88.8493 108.025 89.0456C107.671 89.2495 107.284 89.3218 106.862 89.2626C106.443 89.2045 105.941 89.0072 105.358 88.6706C105.053 88.4941 104.787 88.3286 104.561 88.174C104.337 88.0206 104.159 87.883 104.028 87.7613L104.458 87.3387C104.7 87.5393 104.937 87.7224 105.17 87.8879C105.408 88.0535 105.647 88.2058 105.888 88.3451C106.266 88.5632 106.569 88.6953 106.797 88.7413C107.027 88.7863 107.23 88.7578 107.406 88.6558C107.574 88.5594 107.618 88.447 107.54 88.3187C107.462 88.1905 107.245 88.0233 106.888 87.8172C106.66 87.6857 106.399 87.547 106.105 87.4012C105.81 87.2554 105.488 87.1041 105.136 86.9473Z" fill="url(#paint20_linear_22_5918)"/>
<path d="M110.209 89.8562C110.181 89.8683 110.153 89.8809 110.127 89.8941C110.1 89.9072 110.066 89.9258 110.024 89.95C109.734 90.1177 109.591 90.2438 109.597 90.3282C109.606 90.4126 109.742 90.5304 110.004 90.6817L110.844 91.1668C111.051 91.2863 111.22 91.3537 111.349 91.3691C111.48 91.3855 111.614 91.3537 111.753 91.2737L111.918 91.1783C112.059 91.0972 112.109 91.0166 112.069 90.9366C112.033 90.8566 111.882 90.7398 111.616 90.5863C111.402 90.4625 111.176 90.3397 110.938 90.218C110.705 90.0963 110.462 89.9757 110.209 89.8562ZM110.705 89.6162C110.969 89.7291 111.22 89.8442 111.457 89.9615C111.698 90.0788 111.926 90.1994 112.14 90.3232C112.627 90.6039 112.903 90.8292 112.969 90.9991C113.038 91.1679 112.926 91.3367 112.633 91.5055L112.226 91.7407C111.975 91.8854 111.707 91.944 111.42 91.9166C111.133 91.8892 110.813 91.7736 110.46 91.5697L109.187 90.8346C108.807 90.6154 108.613 90.4268 108.606 90.269C108.598 90.1111 108.771 89.9302 109.124 89.7263L109.52 89.4978C110.08 89.1744 110.707 89.0362 111.4 89.0834C112.097 89.1305 112.798 89.358 113.505 89.7658C113.531 89.7811 113.559 89.7981 113.587 89.8168C113.62 89.8354 113.66 89.8617 113.707 89.8957L113.639 90.4153L113.445 90.3035C112.805 89.9341 112.284 89.7011 111.881 89.6046C111.481 89.5071 111.088 89.5109 110.705 89.6162Z" fill="url(#paint21_linear_22_5918)"/>
<path d="M113.63 93.459L117.803 92.9246L115.812 91.7752L115.163 92.1501L114.639 91.7193L115.69 91.1125L119.034 93.043L118.549 93.3226L114.396 93.9014L113.63 93.459Z" fill="url(#paint22_linear_22_5918)"/>
<path d="M122.774 95.2021C123.045 95.3588 123.186 95.4882 123.195 95.5902C123.206 95.6932 123.099 95.81 122.873 95.9404L122.6 96.0983C122.425 96.1991 122.251 96.2501 122.078 96.2512C121.906 96.2523 121.692 96.2024 121.438 96.1016C121.635 96.2441 121.738 96.3734 121.745 96.4896C121.753 96.6058 121.665 96.7166 121.483 96.8218L121.167 97.0043C120.922 97.1457 120.699 97.2121 120.498 97.2033C120.298 97.1956 120.061 97.1123 119.786 96.9533L117.863 95.8434C117.589 95.6855 117.445 95.5496 117.43 95.4356C117.417 95.3205 117.533 95.1917 117.78 95.0492L118.096 94.8666C118.277 94.7625 118.468 94.7126 118.669 94.717C118.872 94.7203 119.095 94.7778 119.338 94.8897C119.167 94.7428 119.082 94.6189 119.082 94.518C119.084 94.4183 119.171 94.3185 119.344 94.2188L119.617 94.0609C119.843 93.9304 120.045 93.868 120.221 93.8734C120.4 93.88 120.625 93.9617 120.896 94.1184L122.774 95.2021ZM122.027 95.3632L120.623 94.5526C120.507 94.4857 120.41 94.4517 120.332 94.4506C120.256 94.4484 120.163 94.4791 120.053 94.5427L119.902 94.6298C119.794 94.6923 119.741 94.746 119.743 94.791C119.747 94.8348 119.806 94.8902 119.922 94.9571L121.327 95.7677C121.44 95.8335 121.534 95.867 121.609 95.8681C121.684 95.8702 121.778 95.8396 121.888 95.776L122.039 95.6888C122.151 95.6241 122.205 95.5699 122.201 95.526C122.199 95.4833 122.141 95.429 122.027 95.3632ZM120.902 96.0884L119.361 95.1988C119.247 95.133 119.153 95.0996 119.079 95.0985C119.005 95.0974 118.912 95.1292 118.8 95.1939L118.581 95.3205C118.471 95.3841 118.415 95.4367 118.415 95.4783C118.417 95.5189 118.477 95.5732 118.595 95.6411L120.136 96.5307C120.252 96.5976 120.345 96.6316 120.415 96.6327C120.489 96.6338 120.581 96.6025 120.691 96.539L120.911 96.4123C121.023 96.3477 121.078 96.2939 121.076 96.2512C121.074 96.2084 121.016 96.1542 120.902 96.0884Z" fill="url(#paint23_linear_22_5918)"/>
<path d="M127.77 100.181C127.519 100.076 127.274 99.9642 127.035 99.8458C126.797 99.7263 126.566 99.6013 126.34 99.4709C125.854 99.1902 125.575 98.965 125.505 98.795C125.439 98.6251 125.551 98.4563 125.841 98.2886L126.246 98.0551C126.496 97.9104 126.764 97.8512 127.049 97.8775C127.336 97.9049 127.656 98.0205 128.009 98.2244L129.279 98.9578C129.659 99.1771 129.853 99.3656 129.86 99.5235C129.868 99.6814 129.695 99.8622 129.342 100.066L128.946 100.295C128.386 100.618 127.759 100.756 127.066 100.709C126.373 100.662 125.673 100.434 124.967 100.027C124.908 99.9927 124.864 99.9664 124.836 99.9477C124.807 99.9313 124.782 99.9143 124.759 99.8968L124.827 99.3804L125.018 99.4906C125.66 99.8611 126.182 100.095 126.585 100.191C126.989 100.289 127.384 100.285 127.77 100.181ZM128.265 99.9346C128.305 99.9181 128.341 99.9017 128.373 99.8853C128.41 99.8688 128.439 99.854 128.462 99.8409C128.758 99.6698 128.903 99.541 128.898 99.4544C128.892 99.3678 128.757 99.2483 128.493 99.096L127.658 98.6142C127.448 98.4925 127.276 98.424 127.143 98.4086C127.01 98.3933 126.871 98.4272 126.727 98.5106L126.559 98.6076C126.413 98.692 126.359 98.7748 126.397 98.8559C126.435 98.937 126.588 99.0554 126.858 99.2111C127.048 99.3207 127.261 99.4369 127.496 99.5597C127.735 99.6825 127.992 99.8074 128.265 99.9346Z" fill="url(#paint24_linear_22_5918)"/>
<path d="M129.578 101.982L131.729 103.223L133.686 102.094L131.535 100.852L129.578 101.982ZM130.706 100.604C130.982 100.445 131.216 100.364 131.41 100.362C131.607 100.36 131.839 100.436 132.105 100.589L134.141 101.765C134.409 101.919 134.54 102.053 134.534 102.166C134.533 102.279 134.394 102.415 134.119 102.574L132.532 103.49C132.257 103.649 132.02 103.729 131.823 103.731C131.629 103.734 131.398 103.657 131.131 103.503L129.094 102.327C128.828 102.174 128.696 102.04 128.698 101.928C128.704 101.815 128.844 101.679 129.12 101.52L130.706 100.604Z" fill="url(#paint25_linear_22_5918)"/>
<path d="M134.435 105.41L136.873 104.003L136.232 103.633L136.634 103.401L138.104 104.026L135.07 105.777L134.435 105.41Z" fill="url(#paint26_linear_22_5918)"/>
<path d="M140.12 105.897C140.346 105.767 140.547 105.704 140.724 105.71C140.901 105.715 141.125 105.796 141.396 105.953L142.943 106.846C143.214 107.003 143.355 107.132 143.364 107.234C143.376 107.337 143.269 107.454 143.043 107.584L142.849 107.696C142.703 107.78 142.568 107.832 142.444 107.851C142.323 107.87 142.124 107.862 141.846 107.824L139.004 107.423L140.752 108.433L141.197 108.176L141.596 108.587L141.356 108.725C141.13 108.856 140.928 108.918 140.75 108.911C140.573 108.906 140.349 108.825 140.077 108.668L137.545 107.206L137.819 107.048C137.952 106.971 138.082 106.928 138.209 106.918C138.338 106.909 138.518 106.92 138.75 106.951L142.114 107.413L142.507 107.186L140.792 106.196L140.171 106.555L139.73 106.122L140.12 105.897Z" fill="url(#paint27_linear_22_5918)"/>
<path d="M144.985 111.501C144.714 111.344 144.572 111.214 144.561 111.111C144.551 111.009 144.66 110.893 144.886 110.763L145.13 110.621L145.877 110.904L145.455 111.148L147.079 112.085C147.195 112.152 147.29 112.186 147.364 112.187C147.44 112.189 147.532 112.159 147.64 112.096L147.859 111.97C147.969 111.906 148.023 111.852 148.019 111.809C148.017 111.764 147.959 111.708 147.845 111.643L146.828 111.055L147.318 110.773L148.224 111.296C148.338 111.361 148.432 111.395 148.506 111.396C148.58 111.397 148.672 111.366 148.782 111.302L148.933 111.215C149.045 111.15 149.1 111.097 149.098 111.054C149.096 111.011 149.038 110.957 148.925 110.891L147.438 110.033L147.062 110.25L146.577 109.842L146.765 109.733C146.991 109.603 147.193 109.54 147.369 109.546C147.546 109.551 147.77 109.633 148.042 109.789L149.671 110.73C149.942 110.887 150.083 111.016 150.092 111.118C150.102 111.22 149.994 111.336 149.768 111.467L149.494 111.624C149.318 111.726 149.144 111.777 148.973 111.777C148.802 111.777 148.591 111.725 148.341 111.619C148.559 111.772 148.675 111.909 148.688 112.031C148.701 112.152 148.614 112.267 148.426 112.376L148.11 112.558C147.863 112.701 147.64 112.768 147.441 112.761C147.243 112.752 147.008 112.669 146.734 112.511L144.985 111.501Z" fill="url(#paint28_linear_22_5918)"/>
<path d="M150.887 114.948L151.585 114.545L149.303 113.228L149.808 112.937L153.941 113.155L154.601 113.537L152.724 114.62L153.453 115.041L152.949 115.332L152.22 114.912L151.522 115.314L150.887 114.948ZM152.089 114.254L153.436 113.476L150.443 113.303L152.089 114.254Z" fill="url(#paint29_linear_22_5918)"/>
<path d="M154.778 115.605L156.618 114.741L159.219 116.242L158.655 116.508L156.552 115.295L155.9 115.592C156.185 115.726 156.431 115.846 156.638 115.952C156.847 116.06 157.032 116.16 157.193 116.253C157.691 116.541 157.979 116.805 158.056 117.048C158.136 117.289 158.006 117.507 157.666 117.704C157.313 117.908 156.926 117.98 156.504 117.921C156.084 117.863 155.583 117.665 155 117.329C154.694 117.152 154.429 116.987 154.203 116.832C153.978 116.679 153.801 116.541 153.67 116.419L154.1 115.997C154.341 116.197 154.579 116.381 154.812 116.546C155.049 116.712 155.289 116.864 155.53 117.003C155.908 117.221 156.211 117.353 156.439 117.399C156.668 117.444 156.872 117.416 157.048 117.314C157.215 117.217 157.26 117.105 157.182 116.977C157.104 116.849 156.887 116.681 156.53 116.475C156.302 116.344 156.041 116.205 155.746 116.059C155.452 115.914 155.129 115.762 154.778 115.605Z" fill="url(#paint30_linear_22_5918)"/>
<path d="M159.851 118.514C159.822 118.526 159.795 118.539 159.768 118.552C159.742 118.565 159.708 118.584 159.666 118.608C159.375 118.776 159.233 118.902 159.239 118.986C159.248 119.071 159.384 119.189 159.646 119.34L160.486 119.825C160.693 119.944 160.861 120.012 160.99 120.027C161.121 120.044 161.256 120.012 161.395 119.932L161.56 119.836C161.7 119.755 161.751 119.675 161.711 119.595C161.675 119.515 161.524 119.398 161.258 119.244C161.043 119.121 160.817 118.998 160.58 118.876C160.347 118.754 160.103 118.634 159.851 118.514ZM160.347 118.274C160.61 118.387 160.861 118.502 161.099 118.62C161.34 118.737 161.568 118.857 161.782 118.981C162.268 119.262 162.545 119.487 162.611 119.657C162.679 119.826 162.567 119.995 162.275 120.164L161.868 120.399C161.617 120.544 161.348 120.602 161.061 120.575C160.775 120.547 160.455 120.432 160.102 120.228L158.828 119.493C158.449 119.274 158.255 119.085 158.247 118.927C158.24 118.769 158.412 118.588 158.766 118.384L159.162 118.156C159.722 117.832 160.348 117.694 161.042 117.741C161.738 117.789 162.44 118.016 163.146 118.424C163.173 118.439 163.201 118.456 163.229 118.475C163.261 118.494 163.301 118.52 163.349 118.554L163.28 119.073L163.087 118.962C162.447 118.592 161.925 118.359 161.523 118.263C161.122 118.165 160.73 118.169 160.347 118.274Z" fill="url(#paint31_linear_22_5918)"/>
</g>
<path fill-rule="evenodd" clip-rule="evenodd" d="M151.71 159.912C149.32 160.547 147.411 160.983 147.468 160.88C147.524 160.777 148.476 159.923 149.583 158.982C150.69 158.041 151.662 157.109 151.742 156.91C151.883 156.564 151.795 156.496 149.525 155.195L147.161 153.84L147.794 154.663C148.143 155.116 148.501 155.592 148.59 155.721C148.685 155.858 148.429 156.278 147.974 156.73C147.547 157.157 146.178 158.522 144.933 159.765L142.671 162.024L143.893 162.786L145.114 163.549L151.459 162.004C154.948 161.154 157.988 160.409 158.214 160.349C158.582 160.251 158.492 160.163 157.341 159.499L156.056 158.757L151.71 159.912ZM158.978 161.087C158.617 161.233 156.395 162.157 154.039 163.139C151.684 164.122 149.463 165.046 149.103 165.193L148.45 165.459L149.655 166.155C150.765 166.796 150.899 166.838 151.336 166.68C151.939 166.462 161.654 162.411 161.863 162.29C161.949 162.24 161.483 161.89 160.826 161.511L159.633 160.822L158.978 161.087ZM164.963 164.19C163.061 163.669 160.679 163.962 159.632 164.845C159.053 165.335 159.076 166.392 159.69 167.475C160.279 168.513 159.818 169.028 158.515 168.789C157.48 168.599 156.472 167.99 155.833 167.169L155.305 166.49L154.401 166.887C153.905 167.105 153.338 167.337 153.143 167.401C152.66 167.56 153.548 168.403 155.207 169.36C157.293 170.564 159.164 170.911 161.165 170.465C163.427 169.96 163.949 168.999 163.003 167.08C162.476 166.009 162.745 165.615 163.909 165.755C164.637 165.842 165.86 166.555 166.506 167.267C166.78 167.57 166.925 167.547 168.319 166.974C169 166.694 169.046 166.63 168.795 166.308C168.394 165.792 166.018 164.479 164.963 164.19ZM173.289 168.838C173.045 168.746 172.598 168.678 172.295 168.688C171.889 168.701 162.957 170.748 159.536 171.612C159.313 171.668 159.565 171.876 160.529 172.432L161.819 173.178L162.791 172.897L163.763 172.616L165.381 173.493L166.998 174.37L166.627 174.707C165.754 175.5 165.742 175.442 166.917 176.12L168.016 176.755L168.463 176.369C168.708 176.157 170.409 174.665 172.241 173.053L175.574 170.124L174.653 169.565C174.147 169.259 173.533 168.931 173.289 168.838ZM169.759 171.967L168.495 173.069L167.469 172.477C166.561 171.953 166.492 171.873 166.865 171.782C167.096 171.725 168.175 171.441 169.261 171.151C170.348 170.861 171.189 170.678 171.13 170.744C171.071 170.81 170.454 171.36 169.759 171.967Z" fill="white"/>
<g filter="url(#filter2_b_22_5918)">
<g opacity="0.6" filter="url(#filter3_b_22_5918)">
<rect width="110.15" height="172.753" rx="5.82339" transform="matrix(-0.866044 0.499967 -0.866044 -0.499967 264.006 86.371)" fill="white" fill-opacity="0.1"/>
<rect x="-0.840552" y="-8.67752e-08" width="109.179" height="171.783" rx="5.33811" transform="matrix(-0.866044 0.499967 -0.866044 -0.499967 262.438 86.7912)" stroke="url(#paint32_linear_22_5918)" stroke-opacity="0.6" stroke-width="0.970565"/>
</g>
<g filter="url(#filter4_b_22_5918)">
<rect width="110.15" height="172.753" rx="5.82339" transform="matrix(-0.866044 0.499967 -0.866044 -0.499967 264.006 86.371)" fill="white" fill-opacity="0.1"/>
<rect x="-0.840552" y="-8.67752e-08" width="109.179" height="171.783" rx="5.33811" transform="matrix(-0.866044 0.499967 -0.866044 -0.499967 262.438 86.7912)" stroke="url(#paint33_linear_22_5918)" stroke-opacity="0.6" stroke-width="0.970565"/>
</g>
<mask id="mask1_22_5918" style="mask-type:alpha" maskUnits="userSpaceOnUse" x="21" y="1" width="241" height="139">
<rect x="-0.840552" y="-8.67752e-08" width="109.179" height="171.783" rx="5.33811" transform="matrix(-0.866044 0.499967 -0.866044 -0.499967 262.438 86.7912)" fill="url(#paint34_linear_22_5918)" stroke="url(#paint35_linear_22_5918)" stroke-width="0.970565"/>
</mask>
<g mask="url(#mask1_22_5918)">
<path d="M148.961 107.812L149.093 107.888C150.247 108.549 150.794 108.868 151.048 109.065C151.166 109.157 151.176 109.189 151.177 109.191L151.177 109.191C151.177 109.191 151.177 109.191 151.177 109.191C151.177 109.191 151.183 109.202 151.15 109.282L151.15 109.282C151.151 109.282 151.15 109.282 151.149 109.284C151.142 109.294 151.102 109.351 150.989 109.474C150.876 109.597 150.718 109.756 150.525 109.941C150.14 110.31 149.627 110.773 149.078 111.239L148.961 107.812ZM148.961 107.812C149.039 107.917 149.098 107.999 149.129 108.043L148.961 107.812ZM148.475 109.352L148.475 109.352C148.048 109.778 146.679 111.143 145.435 112.386L143.391 114.427L144.316 115.003L143.879 115.236L144.316 115.003L145.254 115.589L151.214 114.137L151.445 114.454L151.214 114.137C154.076 113.441 156.62 112.818 157.569 112.583C157.567 112.582 157.566 112.581 157.564 112.58C157.409 112.483 157.195 112.357 156.907 112.191L155.916 111.618L151.946 112.673C150.745 112.993 149.659 113.263 148.877 113.442C148.488 113.53 148.162 113.599 147.929 113.64C147.821 113.658 147.697 113.678 147.588 113.685L147.586 113.685C147.549 113.687 147.415 113.696 147.271 113.667C147.185 113.649 147.029 113.605 146.931 113.5C146.83 113.391 146.855 113.286 146.888 113.226C146.888 113.226 146.888 113.226 146.888 113.225L147.454 113.329L148.475 109.352ZM148.475 109.352C148.717 109.112 148.912 108.874 149.036 108.671M148.475 109.352L149.036 108.671M149.356 117.954L149.433 117.923L149.433 117.923C149.796 117.775 152.02 116.849 154.374 115.867C156.731 114.884 158.948 113.963 159.306 113.818L149.356 117.954ZM149.356 117.954L150.062 118.363C150.34 118.523 150.547 118.64 150.71 118.725C150.838 118.792 150.921 118.829 150.975 118.85C150.984 118.847 150.995 118.843 151.007 118.839L149.356 117.954ZM170.241 124.606L170.241 124.606L168.977 125.709L168.576 126.059L168.061 125.762L167.036 125.17C166.809 125.039 166.624 124.93 166.484 124.839C166.352 124.755 166.223 124.664 166.142 124.571C166.055 124.471 165.967 124.294 166.161 124.12C166.301 123.994 166.528 123.938 166.617 123.916L166.618 123.916L170.241 124.606ZM170.241 124.606C170.59 124.302 170.919 124.012 171.168 123.789C171.405 123.578 171.598 123.404 171.644 123.352L171.645 123.351M170.241 124.606L171.645 123.351M171.645 123.351C171.687 123.304 171.809 123.128 171.573 122.965C171.404 122.848 171.177 122.84 171.138 122.838L171.136 122.838C171.016 122.834 170.904 122.85 170.86 122.856C170.736 122.873 170.575 122.905 170.402 122.943C170.045 123.021 169.55 123.143 168.999 123.289C167.91 123.58 166.842 123.861 166.619 123.916L171.645 123.351ZM149.036 108.671C149.097 108.57 149.147 108.469 149.172 108.375M149.036 108.671L149.172 108.375M149.172 108.375C149.194 108.295 149.214 108.167 149.129 108.044L149.172 108.375ZM157.829 112.768C157.829 112.768 157.828 112.767 157.826 112.764C157.828 112.767 157.829 112.768 157.829 112.768ZM157.972 112.482C157.981 112.478 157.987 112.477 157.987 112.477C157.988 112.477 157.983 112.478 157.972 112.482ZM159.306 113.818L159.553 113.718L160.393 114.203C160.678 114.368 160.919 114.523 161.087 114.645C161.062 114.656 161.036 114.667 161.008 114.679C160.723 114.801 160.326 114.969 159.851 115.169C158.903 115.569 157.651 116.093 156.386 116.62C153.841 117.681 151.287 118.737 151.007 118.839L159.306 113.818ZM161.295 114.816C161.295 114.816 161.295 114.815 161.294 114.814C161.295 114.815 161.295 114.816 161.295 114.816ZM158.322 121.566L158.322 121.566C158.707 121.636 159.098 121.665 159.46 121.614C159.846 121.559 160.147 121.419 160.327 121.218C160.496 121.03 160.541 120.807 160.518 120.582C160.495 120.353 160.399 120.096 160.241 119.818C159.95 119.305 159.804 118.804 159.795 118.383C159.785 117.95 159.921 117.648 160.11 117.489C160.961 116.771 163.005 116.487 164.695 116.95C165.128 117.068 165.925 117.433 166.7 117.861C167.077 118.07 167.43 118.283 167.71 118.472C168.001 118.67 168.176 118.817 168.239 118.898L168.24 118.898C168.272 118.94 168.293 118.97 168.307 118.991C168.306 118.992 168.305 118.992 168.303 118.993C168.236 119.028 168.131 119.075 167.961 119.144L167.961 119.144C167.612 119.288 167.354 119.392 167.155 119.464C167.088 119.488 167.032 119.508 166.986 119.522C166.635 119.145 166.146 118.776 165.647 118.485C165.389 118.335 165.119 118.2 164.855 118.095C164.598 117.993 164.31 117.904 164.017 117.869L164.017 117.869C163.68 117.828 163.327 117.815 163.005 117.876C162.648 117.943 162.391 118.089 162.256 118.287C162.133 118.467 162.119 118.674 162.154 118.884C162.189 119.098 162.281 119.345 162.418 119.623C162.883 120.566 162.948 121.205 162.707 121.65C162.481 122.064 161.955 122.367 160.938 122.594C160.055 122.791 159.227 122.81 158.386 122.655C157.53 122.496 156.619 122.148 155.614 121.568C154.803 121.099 154.202 120.671 153.867 120.353C153.739 120.231 153.664 120.139 153.625 120.076C153.915 119.966 154.363 119.779 154.748 119.61L155.056 119.475L155.278 119.759C155.955 120.63 157.066 121.335 158.322 121.566ZM172.949 121.575L172.949 121.575C173.025 121.604 173.207 121.691 173.457 121.824C173.695 121.951 173.966 122.104 174.21 122.252C174.21 122.252 174.21 122.252 174.21 122.252L174.805 122.613L171.731 125.315C169.898 126.927 168.199 128.417 167.955 128.628L167.955 128.628L167.911 128.666L167.324 128.327C167.277 128.3 167.233 128.275 167.191 128.251C166.959 128.117 166.803 128.028 166.693 127.953C166.623 127.905 166.595 127.878 166.584 127.867C166.59 127.854 166.606 127.827 166.652 127.776C166.729 127.691 166.843 127.587 167.016 127.431C167.047 127.403 167.08 127.373 167.115 127.341L167.115 127.341L167.487 127.004L167.75 126.764L167.392 126.569L165.774 125.693L164.157 124.816L163.855 124.652L163.484 124.759L162.512 125.04L162.512 125.04L161.923 125.21L160.936 124.64C160.645 124.472 160.433 124.343 160.283 124.246C162.045 123.809 164.8 123.162 167.252 122.6C168.607 122.289 169.865 122.006 170.809 121.8C171.281 121.696 171.672 121.613 171.955 121.555C172.097 121.526 172.208 121.505 172.286 121.491C172.314 121.486 172.335 121.482 172.35 121.48C172.423 121.48 172.53 121.488 172.65 121.506C172.792 121.528 172.898 121.556 172.949 121.575ZM172.379 121.476C172.379 121.476 172.377 121.476 172.374 121.476C172.377 121.476 172.379 121.475 172.379 121.476ZM171.161 123.52C171.161 123.52 171.158 123.521 171.152 123.521C171.158 123.52 171.161 123.52 171.161 123.52Z" fill="white" stroke="url(#paint36_linear_22_5918)" stroke-width="0.970565"/>
<g opacity="0.6">
<rect width="20.2074" height="26.5469" rx="2.42641" transform="matrix(-0.866044 0.499967 -0.866044 -0.499967 99.6396 46.5531)" fill="url(#paint37_linear_22_5918)" stroke="url(#paint38_linear_22_5918)" stroke-width="0.970565"/>
<rect width="13.8678" height="5.54712" rx="2.42641" transform="matrix(-0.866044 0.499967 -0.866044 -0.499967 87.6294 42.7893)" stroke="url(#paint39_linear_22_5918)" stroke-width="0.970565"/>
<path d="M73.0752 35.2897L82.6741 40.8311" stroke="url(#paint40_linear_22_5918)" stroke-width="0.970565"/>
<path d="M86.4761 43.0261L96.075 48.5676" stroke="url(#paint41_linear_22_5918)" stroke-width="0.970565"/>
<path d="M67.9214 38.2652L76.9908 43.501" stroke="url(#paint42_linear_22_5918)" stroke-width="0.970565"/>
<path d="M81.8374 46.2993L90.9068 51.535" stroke="url(#paint43_linear_22_5918)" stroke-width="0.970565"/>
<path d="M62.7666 41.2408L72.3655 46.7823" stroke="url(#paint44_linear_22_5918)" stroke-width="0.970565"/>
<path d="M76.168 48.9772L85.7669 54.5187" stroke="url(#paint45_linear_22_5918)" stroke-width="0.970565"/>
</g>
<path d="M232.004 80.8825L228.499 82.906L224.994 80.8825L232.004 80.8825ZM227.064 78.0306L223.559 80.0541L220.054 78.0306L227.064 78.0306ZM234.034 85.4148L234.034 81.3678L237.539 83.3913L234.034 85.4148ZM238.974 88.2667L238.974 84.2197L242.479 86.2432L238.974 88.2667Z" fill="white" stroke="url(#paint46_linear_22_5918)" stroke-width="0.970565"/>
<mask id="path-33-inside-1_22_5918" fill="white">
<path d="M84.6979 29.2497L87.1362 27.8421L86.4953 27.4721L86.8969 27.2403L88.3667 27.8651L85.3331 29.6164L84.6979 29.2497Z"/>
<path d="M90.3833 29.7364C90.6093 29.606 90.8106 29.5435 90.9872 29.549C91.1638 29.5545 91.3878 29.6356 91.6594 29.7924L93.2061 30.6852C93.4776 30.842 93.6181 30.9714 93.6276 31.0733C93.639 31.1764 93.5317 31.2931 93.3058 31.4236L93.1121 31.5354C92.9658 31.6198 92.831 31.6713 92.7076 31.69C92.5861 31.7097 92.3867 31.7009 92.1094 31.6636L89.2667 31.2624L91.0157 32.2721L91.46 32.0155L91.8588 32.4266L91.6195 32.5648C91.3935 32.6952 91.1913 32.7572 91.0128 32.7506C90.8362 32.7451 90.6121 32.664 90.3406 32.5072L87.8084 31.0454L88.0818 30.8875C88.2147 30.8108 88.3448 30.7675 88.472 30.7576C88.6012 30.7488 88.7816 30.7598 89.0132 30.7905L92.3772 31.2526L92.7703 31.0256L91.0555 30.0357L90.4346 30.3942L89.9931 29.9617L90.3833 29.7364Z"/>
<path d="M92.9867 34.0348C92.7152 33.8781 92.5737 33.7482 92.5623 33.6451C92.5528 33.5432 92.6611 33.427 92.887 33.2965L93.132 33.1551L93.8783 33.4379L93.4567 33.6813L95.0803 34.6186C95.1961 34.6855 95.2911 34.7194 95.3651 34.7205C95.4411 34.7227 95.5332 34.6926 95.6414 34.6301L95.8608 34.5035C95.9709 34.4399 96.0241 34.3862 96.0203 34.3423C96.0184 34.2974 95.9604 34.242 95.8465 34.1763L94.8296 33.5892L95.3196 33.3064L96.2253 33.8293C96.3393 33.8951 96.4333 33.9285 96.5073 33.9296C96.5814 33.9307 96.6735 33.8994 96.7836 33.8359L96.9346 33.7487C97.0466 33.684 97.1017 33.6303 97.0998 33.5876C97.0979 33.5448 97.04 33.4905 96.926 33.4248L95.4392 32.5664L95.0632 32.7835L94.579 32.3757L94.767 32.2671C94.9929 32.1367 95.1942 32.0742 95.3708 32.0797C95.5474 32.0852 95.7715 32.1663 96.0431 32.323L97.6723 33.2636C97.9439 33.4204 98.0844 33.5497 98.0939 33.6517C98.1034 33.7536 97.9951 33.8698 97.7692 34.0003L97.4957 34.1582C97.3191 34.2601 97.1454 34.3111 96.9745 34.3111C96.8036 34.3111 96.5928 34.2585 96.3421 34.1532C96.5605 34.3056 96.6763 34.4426 96.6896 34.5643C96.7029 34.686 96.6156 34.8011 96.4276 34.9096L96.1114 35.0922C95.8646 35.2347 95.6414 35.3021 95.442 35.2944C95.2446 35.2857 95.0091 35.2023 94.7356 35.0445L92.9867 34.0348Z"/>
<path d="M98.8886 37.4814L99.5864 37.0786L97.3049 35.7614L97.809 35.4704L101.942 35.6891L102.603 36.0706L100.726 37.1542L101.455 37.5752L100.951 37.8662L100.222 37.4453L99.5238 37.8481L98.8886 37.4814ZM100.091 36.7875L101.438 36.0097L98.4442 35.8371L100.091 36.7875Z"/>
<path d="M105.041 39.4448L106.881 38.5799L109.482 40.0812L108.918 40.3476L106.816 39.134L106.163 39.4317C106.448 39.5654 106.694 39.6854 106.901 39.7918C107.11 39.8992 107.295 39.9995 107.457 40.0927C107.954 40.3799 108.242 40.6447 108.32 40.8869C108.399 41.1281 108.269 41.3468 107.929 41.543C107.576 41.7469 107.189 41.8193 106.767 41.7601C106.348 41.702 105.846 41.5047 105.263 41.1681C104.958 40.9916 104.692 40.8261 104.466 40.6715C104.242 40.518 104.064 40.3805 103.933 40.2588L104.363 39.8362C104.604 40.0368 104.842 40.2199 105.075 40.3854C105.313 40.5509 105.552 40.7033 105.793 40.8425C106.171 41.0607 106.474 41.1928 106.702 41.2388C106.931 41.2838 107.135 41.2553 107.311 41.1533C107.478 41.0569 107.523 40.9445 107.445 40.8162C107.367 40.688 107.15 40.5208 106.793 40.3147C106.565 40.1831 106.304 40.0445 106.01 39.8987C105.715 39.7529 105.392 39.6016 105.041 39.4448Z"/>
<path d="M110.114 42.3537C110.086 42.3658 110.058 42.3784 110.031 42.3915C110.005 42.4047 109.971 42.4233 109.929 42.4474C109.638 42.6152 109.496 42.7412 109.502 42.8256C109.511 42.9101 109.647 43.0279 109.909 43.1792L110.749 43.6643C110.956 43.7838 111.124 43.8512 111.253 43.8665C111.384 43.883 111.519 43.8512 111.658 43.7712L111.823 43.6758C111.964 43.5947 112.014 43.5141 111.974 43.4341C111.938 43.354 111.787 43.2373 111.521 43.0838C111.307 42.9599 111.081 42.8372 110.843 42.7155C110.61 42.5938 110.367 42.4732 110.114 42.3537ZM110.61 42.1136C110.874 42.2265 111.124 42.3417 111.362 42.459C111.603 42.5763 111.831 42.6968 112.045 42.8207C112.531 43.1014 112.808 43.3266 112.874 43.4966C112.943 43.6654 112.83 43.8342 112.538 44.003L112.131 44.2382C111.88 44.3829 111.611 44.4415 111.325 44.4141C111.038 44.3867 110.718 44.2711 110.365 44.0671L109.091 43.3321C108.712 43.1129 108.518 42.9243 108.51 42.7665C108.503 42.6086 108.676 42.4277 109.029 42.2238L109.425 41.9952C109.985 41.6718 110.612 41.5337 111.305 41.5809C112.002 41.628 112.703 41.8555 113.41 42.2633C113.436 42.2786 113.464 42.2956 113.492 42.3142C113.525 42.3329 113.564 42.3592 113.612 42.3932L113.544 42.9128L113.35 42.801C112.71 42.4315 112.189 42.1986 111.786 42.1021C111.385 42.0046 110.993 42.0084 110.61 42.1136Z"/>
<path d="M113.535 45.9565L117.708 45.4221L115.717 44.2727L115.067 44.6476L114.543 44.2168L115.594 43.61L118.938 45.5405L118.454 45.82L114.301 46.3989L113.535 45.9565Z"/>
<path d="M122.678 47.6996C122.95 47.8563 123.09 47.9857 123.1 48.0876C123.111 48.1907 123.004 48.3074 122.778 48.4379L122.505 48.5957C122.33 48.6966 122.156 48.7476 121.983 48.7487C121.81 48.7498 121.597 48.6999 121.342 48.599C121.54 48.7416 121.642 48.8709 121.65 48.9871C121.658 49.1033 121.57 49.214 121.388 49.3193L121.072 49.5018C120.827 49.6432 120.604 49.7095 120.402 49.7008C120.203 49.6931 119.966 49.6098 119.69 49.4508L117.768 48.3409C117.494 48.183 117.35 48.0471 117.335 47.9331C117.321 47.818 117.438 47.6892 117.685 47.5466L118.001 47.3641C118.182 47.26 118.372 47.2101 118.574 47.2145C118.777 47.2178 119 47.2753 119.243 47.3871C119.072 47.2402 118.987 47.1164 118.987 47.0155C118.989 46.9157 119.076 46.816 119.249 46.7162L119.522 46.5584C119.748 46.4279 119.95 46.3654 120.126 46.3709C120.305 46.3775 120.53 46.4592 120.801 46.6159L122.678 47.6996ZM121.932 47.8607L120.528 47.05C120.412 46.9832 120.315 46.9492 120.237 46.9481C120.161 46.9459 120.068 46.9766 119.958 47.0402L119.807 47.1273C119.699 47.1898 119.646 47.2435 119.648 47.2885C119.651 47.3323 119.711 47.3877 119.827 47.4546L121.231 48.2652C121.345 48.331 121.439 48.3644 121.513 48.3655C121.589 48.3677 121.682 48.337 121.792 48.2735L121.943 48.1863C122.055 48.1216 122.11 48.0674 122.106 48.0235C122.104 47.9808 122.046 47.9265 121.932 47.8607ZM120.807 48.5859L119.266 47.6963C119.152 47.6305 119.058 47.5971 118.984 47.596C118.91 47.5949 118.817 47.6267 118.705 47.6913L118.485 47.818C118.375 47.8815 118.32 47.9342 118.32 47.9758C118.322 48.0164 118.382 48.0706 118.5 48.1386L120.041 49.0282C120.157 49.0951 120.25 49.1291 120.32 49.1302C120.394 49.1313 120.486 49.1 120.596 49.0364L120.815 48.9098C120.927 48.8451 120.983 48.7914 120.981 48.7487C120.979 48.7059 120.921 48.6517 120.807 48.5859Z"/>
<path d="M127.674 52.6787C127.424 52.5735 127.179 52.4617 126.939 52.3433C126.702 52.2238 126.47 52.0988 126.244 51.9684C125.758 51.6877 125.48 51.4624 125.41 51.2925C125.343 51.1226 125.455 50.9538 125.746 50.7861L126.15 50.5526C126.401 50.4078 126.669 50.3487 126.954 50.375C127.24 50.4024 127.56 50.518 127.914 50.7219L129.184 51.4553C129.564 51.6746 129.757 51.8631 129.765 52.021C129.773 52.1788 129.6 52.3597 129.247 52.5636L128.851 52.7922C128.291 53.1156 127.664 53.2537 126.971 53.2066C126.278 53.1594 125.578 52.932 124.872 52.5242C124.813 52.4902 124.769 52.4639 124.741 52.4452C124.712 52.4288 124.686 52.4118 124.664 52.3943L124.732 51.8779L124.923 51.9881C125.565 52.3586 126.087 52.5921 126.489 52.6886C126.894 52.7862 127.289 52.7829 127.674 52.6787ZM128.17 52.4321C128.21 52.4156 128.246 52.3992 128.278 52.3827C128.314 52.3663 128.344 52.3515 128.367 52.3383C128.663 52.1673 128.808 52.0385 128.802 51.9519C128.797 51.8653 128.662 51.7458 128.398 51.5934L127.563 51.1116C127.352 50.99 127.181 50.9214 127.048 50.9061C126.915 50.8907 126.776 50.9247 126.632 51.008L126.464 51.1051C126.318 51.1895 126.263 51.2722 126.301 51.3534C126.339 51.4345 126.493 51.5529 126.763 51.7085C126.953 51.8182 127.165 51.9344 127.401 52.0572C127.64 52.1799 127.897 52.3049 128.17 52.4321Z"/>
<path d="M129.483 54.4793L131.634 55.7208L133.59 54.5911L131.44 53.3496L129.483 54.4793ZM130.611 53.1013C130.886 52.9424 131.121 52.8618 131.315 52.8596C131.512 52.8574 131.744 52.9331 132.01 53.0865L134.046 54.2623C134.314 54.4168 134.445 54.5506 134.439 54.6635C134.437 54.7764 134.299 54.9123 134.023 55.0713L132.437 55.9872C132.162 56.1462 131.925 56.2267 131.728 56.2289C131.534 56.2311 131.303 56.1549 131.035 56.0004L128.999 54.8246C128.733 54.6712 128.601 54.538 128.603 54.425C128.609 54.3121 128.749 54.1762 129.024 54.0172L130.611 53.1013Z"/>
<path d="M134.34 57.9078L136.778 56.5002L136.137 56.1303L136.539 55.8984L138.008 56.5233L134.975 58.2745L134.34 57.9078Z"/>
<path d="M140.025 58.3946C140.251 58.2641 140.452 58.2016 140.629 58.2071C140.805 58.2126 141.029 58.2937 141.301 58.4505L142.848 59.3434C143.119 59.5001 143.26 59.6295 143.269 59.7314C143.281 59.8345 143.173 59.9512 142.947 60.0817L142.754 60.1935C142.607 60.2779 142.473 60.3294 142.349 60.3481C142.228 60.3678 142.028 60.359 141.751 60.3218L138.908 59.9205L140.657 60.9302L141.102 60.6737L141.5 61.0848L141.261 61.2229C141.035 61.3533 140.833 61.4153 140.654 61.4087C140.478 61.4032 140.254 61.3221 139.982 61.1653L137.45 59.7035L137.723 59.5456C137.856 59.4689 137.986 59.4256 138.114 59.4157C138.243 59.4069 138.423 59.4179 138.655 59.4486L142.019 59.9107L142.412 59.6838L140.697 58.6938L140.076 59.0523L139.635 58.6198L140.025 58.3946Z"/>
<path d="M144.89 63.9986C144.618 63.8418 144.477 63.7119 144.466 63.6089C144.456 63.5069 144.564 63.3907 144.79 63.2603L145.035 63.1188L145.782 63.4017L145.36 63.645L146.984 64.5823C147.099 64.6492 147.194 64.6832 147.268 64.6843C147.344 64.6865 147.436 64.6563 147.545 64.5938L147.764 64.4672C147.874 64.4036 147.927 64.3499 147.924 64.3061C147.922 64.2611 147.864 64.2058 147.75 64.14L146.733 63.553L147.223 63.2701L148.129 63.793C148.243 63.8588 148.337 63.8922 148.411 63.8933C148.485 63.8944 148.577 63.8632 148.687 63.7996L148.838 63.7125C148.95 63.6478 149.005 63.5941 149.003 63.5513C149.001 63.5086 148.943 63.4543 148.829 63.3885L147.342 62.5302L146.966 62.7472L146.482 62.3394L146.67 62.2309C146.896 62.1004 147.097 62.0379 147.274 62.0434C147.451 62.0489 147.675 62.13 147.946 62.2868L149.576 63.2274C149.847 63.3841 149.988 63.5135 149.997 63.6154C150.007 63.7174 149.898 63.8336 149.672 63.9641L149.399 64.1219C149.222 64.2239 149.049 64.2748 148.878 64.2748C148.707 64.2748 148.496 64.2222 148.245 64.117C148.464 64.2694 148.58 64.4064 148.593 64.5281C148.606 64.6498 148.519 64.7649 148.331 64.8734L148.015 65.0559C147.768 65.1984 147.545 65.2658 147.345 65.2582C147.148 65.2494 146.912 65.1661 146.639 65.0082L144.89 63.9986Z"/>
<path d="M150.792 67.4452L151.49 67.0423L149.208 65.7252L149.712 65.4341L153.845 65.6528L154.506 66.0343L152.629 67.118L153.358 67.5389L152.854 67.83L152.125 67.409L151.427 67.8119L150.792 67.4452ZM151.994 66.7513L153.341 65.9735L150.347 65.8008L151.994 66.7513Z"/>
<path d="M154.683 68.1029L156.523 67.238L159.123 68.7393L158.559 69.0057L156.457 67.7922L155.805 68.0898C156.09 68.2235 156.336 68.3436 156.543 68.4499C156.752 68.5573 156.937 68.6576 157.098 68.7508C157.596 69.038 157.883 69.3028 157.961 69.5451C158.041 69.7862 157.911 70.0049 157.571 70.2012C157.218 70.4051 156.83 70.4774 156.409 70.4182C155.989 70.3601 155.488 70.1628 154.905 69.8262C154.599 69.6497 154.333 69.4842 154.107 69.3296C153.883 69.1762 153.706 69.0386 153.575 68.9169L154.005 68.4943C154.246 68.6949 154.483 68.878 154.717 69.0435C154.954 69.2091 155.194 69.3614 155.435 69.5007C155.813 69.7188 156.115 69.8509 156.343 69.8969C156.573 69.9419 156.776 69.9134 156.953 69.8114C157.12 69.715 157.165 69.6026 157.087 69.4743C157.009 69.3461 156.791 69.1789 156.434 68.9728C156.207 68.8413 155.946 68.7026 155.651 68.5568C155.357 68.411 155.034 68.2597 154.683 68.1029Z"/>
<path d="M159.756 71.0118C159.727 71.0239 159.7 71.0365 159.673 71.0497C159.647 71.0628 159.612 71.0814 159.571 71.1056C159.28 71.2733 159.138 71.3994 159.143 71.4838C159.153 71.5682 159.289 71.686 159.551 71.8373L160.391 72.3224C160.598 72.4419 160.766 72.5093 160.895 72.5247C161.026 72.5411 161.161 72.5093 161.3 72.4293L161.465 72.3339C161.605 72.2528 161.656 72.1722 161.616 72.0922C161.58 72.0122 161.429 71.8954 161.163 71.7419C160.948 71.6181 160.722 71.4953 160.485 71.3736C160.251 71.2519 160.008 71.1313 159.756 71.0118ZM160.251 70.7718C160.515 70.8847 160.766 70.9998 161.003 71.1171C161.244 71.2344 161.472 71.355 161.687 71.4788C162.173 71.7595 162.449 71.9848 162.516 72.1547C162.584 72.3235 162.472 72.4923 162.18 72.6611L161.772 72.8963C161.522 73.041 161.253 73.0996 160.966 73.0722C160.68 73.0448 160.36 72.9292 160.006 72.7253L158.733 71.9902C158.353 71.771 158.16 71.5824 158.152 71.4246C158.144 71.2667 158.317 71.0858 158.67 70.8819L159.066 70.6534C159.627 70.33 160.253 70.1918 160.946 70.239C161.643 70.2861 162.345 70.5136 163.051 70.9214C163.078 70.9367 163.105 70.9537 163.134 70.9724C163.166 70.991 163.206 71.0173 163.254 71.0513L163.185 71.5709L162.991 71.4591C162.352 71.0897 161.83 70.8567 161.428 70.7602C161.027 70.6627 160.635 70.6665 160.251 70.7718Z"/>
</mask>
<g filter="url(#filter5_i_22_5918)">
<path d="M84.6979 29.2497L87.1362 27.8421L86.4953 27.4721L86.8969 27.2403L88.3667 27.8651L85.3331 29.6164L84.6979 29.2497Z" fill="url(#paint47_linear_22_5918)"/>
<path d="M90.3833 29.7364C90.6093 29.606 90.8106 29.5435 90.9872 29.549C91.1638 29.5545 91.3878 29.6356 91.6594 29.7924L93.2061 30.6852C93.4776 30.842 93.6181 30.9714 93.6276 31.0733C93.639 31.1764 93.5317 31.2931 93.3058 31.4236L93.1121 31.5354C92.9658 31.6198 92.831 31.6713 92.7076 31.69C92.5861 31.7097 92.3867 31.7009 92.1094 31.6636L89.2667 31.2624L91.0157 32.2721L91.46 32.0155L91.8588 32.4266L91.6195 32.5648C91.3935 32.6952 91.1913 32.7572 91.0128 32.7506C90.8362 32.7451 90.6121 32.664 90.3406 32.5072L87.8084 31.0454L88.0818 30.8875C88.2147 30.8108 88.3448 30.7675 88.472 30.7576C88.6012 30.7488 88.7816 30.7598 89.0132 30.7905L92.3772 31.2526L92.7703 31.0256L91.0555 30.0357L90.4346 30.3942L89.9931 29.9617L90.3833 29.7364Z" fill="url(#paint48_linear_22_5918)"/>
<path d="M92.9867 34.0348C92.7152 33.8781 92.5737 33.7482 92.5623 33.6451C92.5528 33.5432 92.6611 33.427 92.887 33.2965L93.132 33.1551L93.8783 33.4379L93.4567 33.6813L95.0803 34.6186C95.1961 34.6855 95.2911 34.7194 95.3651 34.7205C95.4411 34.7227 95.5332 34.6926 95.6414 34.6301L95.8608 34.5035C95.9709 34.4399 96.0241 34.3862 96.0203 34.3423C96.0184 34.2974 95.9604 34.242 95.8465 34.1763L94.8296 33.5892L95.3196 33.3064L96.2253 33.8293C96.3393 33.8951 96.4333 33.9285 96.5073 33.9296C96.5814 33.9307 96.6735 33.8994 96.7836 33.8359L96.9346 33.7487C97.0466 33.684 97.1017 33.6303 97.0998 33.5876C97.0979 33.5448 97.04 33.4905 96.926 33.4248L95.4392 32.5664L95.0632 32.7835L94.579 32.3757L94.767 32.2671C94.9929 32.1367 95.1942 32.0742 95.3708 32.0797C95.5474 32.0852 95.7715 32.1663 96.0431 32.323L97.6723 33.2636C97.9439 33.4204 98.0844 33.5497 98.0939 33.6517C98.1034 33.7536 97.9951 33.8698 97.7692 34.0003L97.4957 34.1582C97.3191 34.2601 97.1454 34.3111 96.9745 34.3111C96.8036 34.3111 96.5928 34.2585 96.3421 34.1532C96.5605 34.3056 96.6763 34.4426 96.6896 34.5643C96.7029 34.686 96.6156 34.8011 96.4276 34.9096L96.1114 35.0922C95.8646 35.2347 95.6414 35.3021 95.442 35.2944C95.2446 35.2857 95.0091 35.2023 94.7356 35.0445L92.9867 34.0348Z" fill="url(#paint49_linear_22_5918)"/>
<path d="M98.8886 37.4814L99.5864 37.0786L97.3049 35.7614L97.809 35.4704L101.942 35.6891L102.603 36.0706L100.726 37.1542L101.455 37.5752L100.951 37.8662L100.222 37.4453L99.5238 37.8481L98.8886 37.4814ZM100.091 36.7875L101.438 36.0097L98.4442 35.8371L100.091 36.7875Z" fill="url(#paint50_linear_22_5918)"/>
<path d="M105.041 39.4448L106.881 38.5799L109.482 40.0812L108.918 40.3476L106.816 39.134L106.163 39.4317C106.448 39.5654 106.694 39.6854 106.901 39.7918C107.11 39.8992 107.295 39.9995 107.457 40.0927C107.954 40.3799 108.242 40.6447 108.32 40.8869C108.399 41.1281 108.269 41.3468 107.929 41.543C107.576 41.7469 107.189 41.8193 106.767 41.7601C106.348 41.702 105.846 41.5047 105.263 41.1681C104.958 40.9916 104.692 40.8261 104.466 40.6715C104.242 40.518 104.064 40.3805 103.933 40.2588L104.363 39.8362C104.604 40.0368 104.842 40.2199 105.075 40.3854C105.313 40.5509 105.552 40.7033 105.793 40.8425C106.171 41.0607 106.474 41.1928 106.702 41.2388C106.931 41.2838 107.135 41.2553 107.311 41.1533C107.478 41.0569 107.523 40.9445 107.445 40.8162C107.367 40.688 107.15 40.5208 106.793 40.3147C106.565 40.1831 106.304 40.0445 106.01 39.8987C105.715 39.7529 105.392 39.6016 105.041 39.4448Z" fill="url(#paint51_linear_22_5918)"/>
<path d="M110.114 42.3537C110.086 42.3658 110.058 42.3784 110.031 42.3915C110.005 42.4047 109.971 42.4233 109.929 42.4474C109.638 42.6152 109.496 42.7412 109.502 42.8256C109.511 42.9101 109.647 43.0279 109.909 43.1792L110.749 43.6643C110.956 43.7838 111.124 43.8512 111.253 43.8665C111.384 43.883 111.519 43.8512 111.658 43.7712L111.823 43.6758C111.964 43.5947 112.014 43.5141 111.974 43.4341C111.938 43.354 111.787 43.2373 111.521 43.0838C111.307 42.9599 111.081 42.8372 110.843 42.7155C110.61 42.5938 110.367 42.4732 110.114 42.3537ZM110.61 42.1136C110.874 42.2265 111.124 42.3417 111.362 42.459C111.603 42.5763 111.831 42.6968 112.045 42.8207C112.531 43.1014 112.808 43.3266 112.874 43.4966C112.943 43.6654 112.83 43.8342 112.538 44.003L112.131 44.2382C111.88 44.3829 111.611 44.4415 111.325 44.4141C111.038 44.3867 110.718 44.2711 110.365 44.0671L109.091 43.3321C108.712 43.1129 108.518 42.9243 108.51 42.7665C108.503 42.6086 108.676 42.4277 109.029 42.2238L109.425 41.9952C109.985 41.6718 110.612 41.5337 111.305 41.5809C112.002 41.628 112.703 41.8555 113.41 42.2633C113.436 42.2786 113.464 42.2956 113.492 42.3142C113.525 42.3329 113.564 42.3592 113.612 42.3932L113.544 42.9128L113.35 42.801C112.71 42.4315 112.189 42.1986 111.786 42.1021C111.385 42.0046 110.993 42.0084 110.61 42.1136Z" fill="url(#paint52_linear_22_5918)"/>
<path d="M113.535 45.9565L117.708 45.4221L115.717 44.2727L115.067 44.6476L114.543 44.2168L115.594 43.61L118.938 45.5405L118.454 45.82L114.301 46.3989L113.535 45.9565Z" fill="url(#paint53_linear_22_5918)"/>
<path d="M122.678 47.6996C122.95 47.8563 123.09 47.9857 123.1 48.0876C123.111 48.1907 123.004 48.3074 122.778 48.4379L122.505 48.5957C122.33 48.6966 122.156 48.7476 121.983 48.7487C121.81 48.7498 121.597 48.6999 121.342 48.599C121.54 48.7416 121.642 48.8709 121.65 48.9871C121.658 49.1033 121.57 49.214 121.388 49.3193L121.072 49.5018C120.827 49.6432 120.604 49.7095 120.402 49.7008C120.203 49.6931 119.966 49.6098 119.69 49.4508L117.768 48.3409C117.494 48.183 117.35 48.0471 117.335 47.9331C117.321 47.818 117.438 47.6892 117.685 47.5466L118.001 47.3641C118.182 47.26 118.372 47.2101 118.574 47.2145C118.777 47.2178 119 47.2753 119.243 47.3871C119.072 47.2402 118.987 47.1164 118.987 47.0155C118.989 46.9157 119.076 46.816 119.249 46.7162L119.522 46.5584C119.748 46.4279 119.95 46.3654 120.126 46.3709C120.305 46.3775 120.53 46.4592 120.801 46.6159L122.678 47.6996ZM121.932 47.8607L120.528 47.05C120.412 46.9832 120.315 46.9492 120.237 46.9481C120.161 46.9459 120.068 46.9766 119.958 47.0402L119.807 47.1273C119.699 47.1898 119.646 47.2435 119.648 47.2885C119.651 47.3323 119.711 47.3877 119.827 47.4546L121.231 48.2652C121.345 48.331 121.439 48.3644 121.513 48.3655C121.589 48.3677 121.682 48.337 121.792 48.2735L121.943 48.1863C122.055 48.1216 122.11 48.0674 122.106 48.0235C122.104 47.9808 122.046 47.9265 121.932 47.8607ZM120.807 48.5859L119.266 47.6963C119.152 47.6305 119.058 47.5971 118.984 47.596C118.91 47.5949 118.817 47.6267 118.705 47.6913L118.485 47.818C118.375 47.8815 118.32 47.9342 118.32 47.9758C118.322 48.0164 118.382 48.0706 118.5 48.1386L120.041 49.0282C120.157 49.0951 120.25 49.1291 120.32 49.1302C120.394 49.1313 120.486 49.1 120.596 49.0364L120.815 48.9098C120.927 48.8451 120.983 48.7914 120.981 48.7487C120.979 48.7059 120.921 48.6517 120.807 48.5859Z" fill="url(#paint54_linear_22_5918)"/>
<path d="M127.674 52.6787C127.424 52.5735 127.179 52.4617 126.939 52.3433C126.702 52.2238 126.47 52.0988 126.244 51.9684C125.758 51.6877 125.48 51.4624 125.41 51.2925C125.343 51.1226 125.455 50.9538 125.746 50.7861L126.15 50.5526C126.401 50.4078 126.669 50.3487 126.954 50.375C127.24 50.4024 127.56 50.518 127.914 50.7219L129.184 51.4553C129.564 51.6746 129.757 51.8631 129.765 52.021C129.773 52.1788 129.6 52.3597 129.247 52.5636L128.851 52.7922C128.291 53.1156 127.664 53.2537 126.971 53.2066C126.278 53.1594 125.578 52.932 124.872 52.5242C124.813 52.4902 124.769 52.4639 124.741 52.4452C124.712 52.4288 124.686 52.4118 124.664 52.3943L124.732 51.8779L124.923 51.9881C125.565 52.3586 126.087 52.5921 126.489 52.6886C126.894 52.7862 127.289 52.7829 127.674 52.6787ZM128.17 52.4321C128.21 52.4156 128.246 52.3992 128.278 52.3827C128.314 52.3663 128.344 52.3515 128.367 52.3383C128.663 52.1673 128.808 52.0385 128.802 51.9519C128.797 51.8653 128.662 51.7458 128.398 51.5934L127.563 51.1116C127.352 50.99 127.181 50.9214 127.048 50.9061C126.915 50.8907 126.776 50.9247 126.632 51.008L126.464 51.1051C126.318 51.1895 126.263 51.2722 126.301 51.3534C126.339 51.4345 126.493 51.5529 126.763 51.7085C126.953 51.8182 127.165 51.9344 127.401 52.0572C127.64 52.1799 127.897 52.3049 128.17 52.4321Z" fill="url(#paint55_linear_22_5918)"/>
<path d="M129.483 54.4793L131.634 55.7208L133.59 54.5911L131.44 53.3496L129.483 54.4793ZM130.611 53.1013C130.886 52.9424 131.121 52.8618 131.315 52.8596C131.512 52.8574 131.744 52.9331 132.01 53.0865L134.046 54.2623C134.314 54.4168 134.445 54.5506 134.439 54.6635C134.437 54.7764 134.299 54.9123 134.023 55.0713L132.437 55.9872C132.162 56.1462 131.925 56.2267 131.728 56.2289C131.534 56.2311 131.303 56.1549 131.035 56.0004L128.999 54.8246C128.733 54.6712 128.601 54.538 128.603 54.425C128.609 54.3121 128.749 54.1762 129.024 54.0172L130.611 53.1013Z" fill="url(#paint56_linear_22_5918)"/>
<path d="M134.34 57.9078L136.778 56.5002L136.137 56.1303L136.539 55.8984L138.008 56.5233L134.975 58.2745L134.34 57.9078Z" fill="url(#paint57_linear_22_5918)"/>
<path d="M140.025 58.3946C140.251 58.2641 140.452 58.2016 140.629 58.2071C140.805 58.2126 141.029 58.2937 141.301 58.4505L142.848 59.3434C143.119 59.5001 143.26 59.6295 143.269 59.7314C143.281 59.8345 143.173 59.9512 142.947 60.0817L142.754 60.1935C142.607 60.2779 142.473 60.3294 142.349 60.3481C142.228 60.3678 142.028 60.359 141.751 60.3218L138.908 59.9205L140.657 60.9302L141.102 60.6737L141.5 61.0848L141.261 61.2229C141.035 61.3533 140.833 61.4153 140.654 61.4087C140.478 61.4032 140.254 61.3221 139.982 61.1653L137.45 59.7035L137.723 59.5456C137.856 59.4689 137.986 59.4256 138.114 59.4157C138.243 59.4069 138.423 59.4179 138.655 59.4486L142.019 59.9107L142.412 59.6838L140.697 58.6938L140.076 59.0523L139.635 58.6198L140.025 58.3946Z" fill="url(#paint58_linear_22_5918)"/>
<path d="M144.89 63.9986C144.618 63.8418 144.477 63.7119 144.466 63.6089C144.456 63.5069 144.564 63.3907 144.79 63.2603L145.035 63.1188L145.782 63.4017L145.36 63.645L146.984 64.5823C147.099 64.6492 147.194 64.6832 147.268 64.6843C147.344 64.6865 147.436 64.6563 147.545 64.5938L147.764 64.4672C147.874 64.4036 147.927 64.3499 147.924 64.3061C147.922 64.2611 147.864 64.2058 147.75 64.14L146.733 63.553L147.223 63.2701L148.129 63.793C148.243 63.8588 148.337 63.8922 148.411 63.8933C148.485 63.8944 148.577 63.8632 148.687 63.7996L148.838 63.7125C148.95 63.6478 149.005 63.5941 149.003 63.5513C149.001 63.5086 148.943 63.4543 148.829 63.3885L147.342 62.5302L146.966 62.7472L146.482 62.3394L146.67 62.2309C146.896 62.1004 147.097 62.0379 147.274 62.0434C147.451 62.0489 147.675 62.13 147.946 62.2868L149.576 63.2274C149.847 63.3841 149.988 63.5135 149.997 63.6154C150.007 63.7174 149.898 63.8336 149.672 63.9641L149.399 64.1219C149.222 64.2239 149.049 64.2748 148.878 64.2748C148.707 64.2748 148.496 64.2222 148.245 64.117C148.464 64.2694 148.58 64.4064 148.593 64.5281C148.606 64.6498 148.519 64.7649 148.331 64.8734L148.015 65.0559C147.768 65.1984 147.545 65.2658 147.345 65.2582C147.148 65.2494 146.912 65.1661 146.639 65.0082L144.89 63.9986Z" fill="url(#paint59_linear_22_5918)"/>
<path d="M150.792 67.4452L151.49 67.0423L149.208 65.7252L149.712 65.4341L153.845 65.6528L154.506 66.0343L152.629 67.118L153.358 67.5389L152.854 67.83L152.125 67.409L151.427 67.8119L150.792 67.4452ZM151.994 66.7513L153.341 65.9735L150.347 65.8008L151.994 66.7513Z" fill="url(#paint60_linear_22_5918)"/>
<path d="M154.683 68.1029L156.523 67.238L159.123 68.7393L158.559 69.0057L156.457 67.7922L155.805 68.0898C156.09 68.2235 156.336 68.3436 156.543 68.4499C156.752 68.5573 156.937 68.6576 157.098 68.7508C157.596 69.038 157.883 69.3028 157.961 69.5451C158.041 69.7862 157.911 70.0049 157.571 70.2012C157.218 70.4051 156.83 70.4774 156.409 70.4182C155.989 70.3601 155.488 70.1628 154.905 69.8262C154.599 69.6497 154.333 69.4842 154.107 69.3296C153.883 69.1762 153.706 69.0386 153.575 68.9169L154.005 68.4943C154.246 68.6949 154.483 68.878 154.717 69.0435C154.954 69.2091 155.194 69.3614 155.435 69.5007C155.813 69.7188 156.115 69.8509 156.343 69.8969C156.573 69.9419 156.776 69.9134 156.953 69.8114C157.12 69.715 157.165 69.6026 157.087 69.4743C157.009 69.3461 156.791 69.1789 156.434 68.9728C156.207 68.8413 155.946 68.7026 155.651 68.5568C155.357 68.411 155.034 68.2597 154.683 68.1029Z" fill="url(#paint61_linear_22_5918)"/>
<path d="M159.756 71.0118C159.727 71.0239 159.7 71.0365 159.673 71.0497C159.647 71.0628 159.612 71.0814 159.571 71.1056C159.28 71.2733 159.138 71.3994 159.143 71.4838C159.153 71.5682 159.289 71.686 159.551 71.8373L160.391 72.3224C160.598 72.4419 160.766 72.5093 160.895 72.5247C161.026 72.5411 161.161 72.5093 161.3 72.4293L161.465 72.3339C161.605 72.2528 161.656 72.1722 161.616 72.0922C161.58 72.0122 161.429 71.8954 161.163 71.7419C160.948 71.6181 160.722 71.4953 160.485 71.3736C160.251 71.2519 160.008 71.1313 159.756 71.0118ZM160.251 70.7718C160.515 70.8847 160.766 70.9998 161.003 71.1171C161.244 71.2344 161.472 71.355 161.687 71.4788C162.173 71.7595 162.449 71.9848 162.516 72.1547C162.584 72.3235 162.472 72.4923 162.18 72.6611L161.772 72.8963C161.522 73.041 161.253 73.0996 160.966 73.0722C160.68 73.0448 160.36 72.9292 160.006 72.7253L158.733 71.9902C158.353 71.771 158.16 71.5824 158.152 71.4246C158.144 71.2667 158.317 71.0858 158.67 70.8819L159.066 70.6534C159.627 70.33 160.253 70.1918 160.946 70.239C161.643 70.2861 162.345 70.5136 163.051 70.9214C163.078 70.9367 163.105 70.9537 163.134 70.9724C163.166 70.991 163.206 71.0173 163.254 71.0513L163.185 71.5709L162.991 71.4591C162.352 71.0897 161.83 70.8567 161.428 70.7602C161.027 70.6627 160.635 70.6665 160.251 70.7718Z" fill="url(#paint62_linear_22_5918)"/>
</g>
<path d="M84.6979 29.2497L87.1362 27.8421L86.4953 27.4721L86.8969 27.2403L88.3667 27.8651L85.3331 29.6164L84.6979 29.2497Z" stroke="url(#paint63_linear_22_5918)" stroke-width="1.94113" mask="url(#path-33-inside-1_22_5918)"/>
<path d="M90.3833 29.7364C90.6093 29.606 90.8106 29.5435 90.9872 29.549C91.1638 29.5545 91.3878 29.6356 91.6594 29.7924L93.2061 30.6852C93.4776 30.842 93.6181 30.9714 93.6276 31.0733C93.639 31.1764 93.5317 31.2931 93.3058 31.4236L93.1121 31.5354C92.9658 31.6198 92.831 31.6713 92.7076 31.69C92.5861 31.7097 92.3867 31.7009 92.1094 31.6636L89.2667 31.2624L91.0157 32.2721L91.46 32.0155L91.8588 32.4266L91.6195 32.5648C91.3935 32.6952 91.1913 32.7572 91.0128 32.7506C90.8362 32.7451 90.6121 32.664 90.3406 32.5072L87.8084 31.0454L88.0818 30.8875C88.2147 30.8108 88.3448 30.7675 88.472 30.7576C88.6012 30.7488 88.7816 30.7598 89.0132 30.7905L92.3772 31.2526L92.7703 31.0256L91.0555 30.0357L90.4346 30.3942L89.9931 29.9617L90.3833 29.7364Z" stroke="url(#paint64_linear_22_5918)" stroke-width="1.94113" mask="url(#path-33-inside-1_22_5918)"/>
<path d="M92.9867 34.0348C92.7152 33.8781 92.5737 33.7482 92.5623 33.6451C92.5528 33.5432 92.6611 33.427 92.887 33.2965L93.132 33.1551L93.8783 33.4379L93.4567 33.6813L95.0803 34.6186C95.1961 34.6855 95.2911 34.7194 95.3651 34.7205C95.4411 34.7227 95.5332 34.6926 95.6414 34.6301L95.8608 34.5035C95.9709 34.4399 96.0241 34.3862 96.0203 34.3423C96.0184 34.2974 95.9604 34.242 95.8465 34.1763L94.8296 33.5892L95.3196 33.3064L96.2253 33.8293C96.3393 33.8951 96.4333 33.9285 96.5073 33.9296C96.5814 33.9307 96.6735 33.8994 96.7836 33.8359L96.9346 33.7487C97.0466 33.684 97.1017 33.6303 97.0998 33.5876C97.0979 33.5448 97.04 33.4905 96.926 33.4248L95.4392 32.5664L95.0632 32.7835L94.579 32.3757L94.767 32.2671C94.9929 32.1367 95.1942 32.0742 95.3708 32.0797C95.5474 32.0852 95.7715 32.1663 96.0431 32.323L97.6723 33.2636C97.9439 33.4204 98.0844 33.5497 98.0939 33.6517C98.1034 33.7536 97.9951 33.8698 97.7692 34.0003L97.4957 34.1582C97.3191 34.2601 97.1454 34.3111 96.9745 34.3111C96.8036 34.3111 96.5928 34.2585 96.3421 34.1532C96.5605 34.3056 96.6763 34.4426 96.6896 34.5643C96.7029 34.686 96.6156 34.8011 96.4276 34.9096L96.1114 35.0922C95.8646 35.2347 95.6414 35.3021 95.442 35.2944C95.2446 35.2857 95.0091 35.2023 94.7356 35.0445L92.9867 34.0348Z" stroke="url(#paint65_linear_22_5918)" stroke-width="1.94113" mask="url(#path-33-inside-1_22_5918)"/>
<path d="M98.8886 37.4814L99.5864 37.0786L97.3049 35.7614L97.809 35.4704L101.942 35.6891L102.603 36.0706L100.726 37.1542L101.455 37.5752L100.951 37.8662L100.222 37.4453L99.5238 37.8481L98.8886 37.4814ZM100.091 36.7875L101.438 36.0097L98.4442 35.8371L100.091 36.7875Z" stroke="url(#paint66_linear_22_5918)" stroke-width="1.94113" mask="url(#path-33-inside-1_22_5918)"/>
<path d="M105.041 39.4448L106.881 38.5799L109.482 40.0812L108.918 40.3476L106.816 39.134L106.163 39.4317C106.448 39.5654 106.694 39.6854 106.901 39.7918C107.11 39.8992 107.295 39.9995 107.457 40.0927C107.954 40.3799 108.242 40.6447 108.32 40.8869C108.399 41.1281 108.269 41.3468 107.929 41.543C107.576 41.7469 107.189 41.8193 106.767 41.7601C106.348 41.702 105.846 41.5047 105.263 41.1681C104.958 40.9916 104.692 40.8261 104.466 40.6715C104.242 40.518 104.064 40.3805 103.933 40.2588L104.363 39.8362C104.604 40.0368 104.842 40.2199 105.075 40.3854C105.313 40.5509 105.552 40.7033 105.793 40.8425C106.171 41.0607 106.474 41.1928 106.702 41.2388C106.931 41.2838 107.135 41.2553 107.311 41.1533C107.478 41.0569 107.523 40.9445 107.445 40.8162C107.367 40.688 107.15 40.5208 106.793 40.3147C106.565 40.1831 106.304 40.0445 106.01 39.8987C105.715 39.7529 105.392 39.6016 105.041 39.4448Z" stroke="url(#paint67_linear_22_5918)" stroke-width="1.94113" mask="url(#path-33-inside-1_22_5918)"/>
<path d="M110.114 42.3537C110.086 42.3658 110.058 42.3784 110.031 42.3915C110.005 42.4047 109.971 42.4233 109.929 42.4474C109.638 42.6152 109.496 42.7412 109.502 42.8256C109.511 42.9101 109.647 43.0279 109.909 43.1792L110.749 43.6643C110.956 43.7838 111.124 43.8512 111.253 43.8665C111.384 43.883 111.519 43.8512 111.658 43.7712L111.823 43.6758C111.964 43.5947 112.014 43.5141 111.974 43.4341C111.938 43.354 111.787 43.2373 111.521 43.0838C111.307 42.9599 111.081 42.8372 110.843 42.7155C110.61 42.5938 110.367 42.4732 110.114 42.3537ZM110.61 42.1136C110.874 42.2265 111.124 42.3417 111.362 42.459C111.603 42.5763 111.831 42.6968 112.045 42.8207C112.531 43.1014 112.808 43.3266 112.874 43.4966C112.943 43.6654 112.83 43.8342 112.538 44.003L112.131 44.2382C111.88 44.3829 111.611 44.4415 111.325 44.4141C111.038 44.3867 110.718 44.2711 110.365 44.0671L109.091 43.3321C108.712 43.1129 108.518 42.9243 108.51 42.7665C108.503 42.6086 108.676 42.4277 109.029 42.2238L109.425 41.9952C109.985 41.6718 110.612 41.5337 111.305 41.5809C112.002 41.628 112.703 41.8555 113.41 42.2633C113.436 42.2786 113.464 42.2956 113.492 42.3142C113.525 42.3329 113.564 42.3592 113.612 42.3932L113.544 42.9128L113.35 42.801C112.71 42.4315 112.189 42.1986 111.786 42.1021C111.385 42.0046 110.993 42.0084 110.61 42.1136Z" stroke="url(#paint68_linear_22_5918)" stroke-width="1.94113" mask="url(#path-33-inside-1_22_5918)"/>
<path d="M113.535 45.9565L117.708 45.4221L115.717 44.2727L115.067 44.6476L114.543 44.2168L115.594 43.61L118.938 45.5405L118.454 45.82L114.301 46.3989L113.535 45.9565Z" stroke="url(#paint69_linear_22_5918)" stroke-width="1.94113" mask="url(#path-33-inside-1_22_5918)"/>
<path d="M122.678 47.6996C122.95 47.8563 123.09 47.9857 123.1 48.0876C123.111 48.1907 123.004 48.3074 122.778 48.4379L122.505 48.5957C122.33 48.6966 122.156 48.7476 121.983 48.7487C121.81 48.7498 121.597 48.6999 121.342 48.599C121.54 48.7416 121.642 48.8709 121.65 48.9871C121.658 49.1033 121.57 49.214 121.388 49.3193L121.072 49.5018C120.827 49.6432 120.604 49.7095 120.402 49.7008C120.203 49.6931 119.966 49.6098 119.69 49.4508L117.768 48.3409C117.494 48.183 117.35 48.0471 117.335 47.9331C117.321 47.818 117.438 47.6892 117.685 47.5466L118.001 47.3641C118.182 47.26 118.372 47.2101 118.574 47.2145C118.777 47.2178 119 47.2753 119.243 47.3871C119.072 47.2402 118.987 47.1164 118.987 47.0155C118.989 46.9157 119.076 46.816 119.249 46.7162L119.522 46.5584C119.748 46.4279 119.95 46.3654 120.126 46.3709C120.305 46.3775 120.53 46.4592 120.801 46.6159L122.678 47.6996ZM121.932 47.8607L120.528 47.05C120.412 46.9832 120.315 46.9492 120.237 46.9481C120.161 46.9459 120.068 46.9766 119.958 47.0402L119.807 47.1273C119.699 47.1898 119.646 47.2435 119.648 47.2885C119.651 47.3323 119.711 47.3877 119.827 47.4546L121.231 48.2652C121.345 48.331 121.439 48.3644 121.513 48.3655C121.589 48.3677 121.682 48.337 121.792 48.2735L121.943 48.1863C122.055 48.1216 122.11 48.0674 122.106 48.0235C122.104 47.9808 122.046 47.9265 121.932 47.8607ZM120.807 48.5859L119.266 47.6963C119.152 47.6305 119.058 47.5971 118.984 47.596C118.91 47.5949 118.817 47.6267 118.705 47.6913L118.485 47.818C118.375 47.8815 118.32 47.9342 118.32 47.9758C118.322 48.0164 118.382 48.0706 118.5 48.1386L120.041 49.0282C120.157 49.0951 120.25 49.1291 120.32 49.1302C120.394 49.1313 120.486 49.1 120.596 49.0364L120.815 48.9098C120.927 48.8451 120.983 48.7914 120.981 48.7487C120.979 48.7059 120.921 48.6517 120.807 48.5859Z" stroke="url(#paint70_linear_22_5918)" stroke-width="1.94113" mask="url(#path-33-inside-1_22_5918)"/>
<path d="M127.674 52.6787C127.424 52.5735 127.179 52.4617 126.939 52.3433C126.702 52.2238 126.47 52.0988 126.244 51.9684C125.758 51.6877 125.48 51.4624 125.41 51.2925C125.343 51.1226 125.455 50.9538 125.746 50.7861L126.15 50.5526C126.401 50.4078 126.669 50.3487 126.954 50.375C127.24 50.4024 127.56 50.518 127.914 50.7219L129.184 51.4553C129.564 51.6746 129.757 51.8631 129.765 52.021C129.773 52.1788 129.6 52.3597 129.247 52.5636L128.851 52.7922C128.291 53.1156 127.664 53.2537 126.971 53.2066C126.278 53.1594 125.578 52.932 124.872 52.5242C124.813 52.4902 124.769 52.4639 124.741 52.4452C124.712 52.4288 124.686 52.4118 124.664 52.3943L124.732 51.8779L124.923 51.9881C125.565 52.3586 126.087 52.5921 126.489 52.6886C126.894 52.7862 127.289 52.7829 127.674 52.6787ZM128.17 52.4321C128.21 52.4156 128.246 52.3992 128.278 52.3827C128.314 52.3663 128.344 52.3515 128.367 52.3383C128.663 52.1673 128.808 52.0385 128.802 51.9519C128.797 51.8653 128.662 51.7458 128.398 51.5934L127.563 51.1116C127.352 50.99 127.181 50.9214 127.048 50.9061C126.915 50.8907 126.776 50.9247 126.632 51.008L126.464 51.1051C126.318 51.1895 126.263 51.2722 126.301 51.3534C126.339 51.4345 126.493 51.5529 126.763 51.7085C126.953 51.8182 127.165 51.9344 127.401 52.0572C127.64 52.1799 127.897 52.3049 128.17 52.4321Z" stroke="url(#paint71_linear_22_5918)" stroke-width="1.94113" mask="url(#path-33-inside-1_22_5918)"/>
<path d="M129.483 54.4793L131.634 55.7208L133.59 54.5911L131.44 53.3496L129.483 54.4793ZM130.611 53.1013C130.886 52.9424 131.121 52.8618 131.315 52.8596C131.512 52.8574 131.744 52.9331 132.01 53.0865L134.046 54.2623C134.314 54.4168 134.445 54.5506 134.439 54.6635C134.437 54.7764 134.299 54.9123 134.023 55.0713L132.437 55.9872C132.162 56.1462 131.925 56.2267 131.728 56.2289C131.534 56.2311 131.303 56.1549 131.035 56.0004L128.999 54.8246C128.733 54.6712 128.601 54.538 128.603 54.425C128.609 54.3121 128.749 54.1762 129.024 54.0172L130.611 53.1013Z" stroke="url(#paint72_linear_22_5918)" stroke-width="1.94113" mask="url(#path-33-inside-1_22_5918)"/>
<path d="M134.34 57.9078L136.778 56.5002L136.137 56.1303L136.539 55.8984L138.008 56.5233L134.975 58.2745L134.34 57.9078Z" stroke="url(#paint73_linear_22_5918)" stroke-width="1.94113" mask="url(#path-33-inside-1_22_5918)"/>
<path d="M140.025 58.3946C140.251 58.2641 140.452 58.2016 140.629 58.2071C140.805 58.2126 141.029 58.2937 141.301 58.4505L142.848 59.3434C143.119 59.5001 143.26 59.6295 143.269 59.7314C143.281 59.8345 143.173 59.9512 142.947 60.0817L142.754 60.1935C142.607 60.2779 142.473 60.3294 142.349 60.3481C142.228 60.3678 142.028 60.359 141.751 60.3218L138.908 59.9205L140.657 60.9302L141.102 60.6737L141.5 61.0848L141.261 61.2229C141.035 61.3533 140.833 61.4153 140.654 61.4087C140.478 61.4032 140.254 61.3221 139.982 61.1653L137.45 59.7035L137.723 59.5456C137.856 59.4689 137.986 59.4256 138.114 59.4157C138.243 59.4069 138.423 59.4179 138.655 59.4486L142.019 59.9107L142.412 59.6838L140.697 58.6938L140.076 59.0523L139.635 58.6198L140.025 58.3946Z" stroke="url(#paint74_linear_22_5918)" stroke-width="1.94113" mask="url(#path-33-inside-1_22_5918)"/>
<path d="M144.89 63.9986C144.618 63.8418 144.477 63.7119 144.466 63.6089C144.456 63.5069 144.564 63.3907 144.79 63.2603L145.035 63.1188L145.782 63.4017L145.36 63.645L146.984 64.5823C147.099 64.6492 147.194 64.6832 147.268 64.6843C147.344 64.6865 147.436 64.6563 147.545 64.5938L147.764 64.4672C147.874 64.4036 147.927 64.3499 147.924 64.3061C147.922 64.2611 147.864 64.2058 147.75 64.14L146.733 63.553L147.223 63.2701L148.129 63.793C148.243 63.8588 148.337 63.8922 148.411 63.8933C148.485 63.8944 148.577 63.8632 148.687 63.7996L148.838 63.7125C148.95 63.6478 149.005 63.5941 149.003 63.5513C149.001 63.5086 148.943 63.4543 148.829 63.3885L147.342 62.5302L146.966 62.7472L146.482 62.3394L146.67 62.2309C146.896 62.1004 147.097 62.0379 147.274 62.0434C147.451 62.0489 147.675 62.13 147.946 62.2868L149.576 63.2274C149.847 63.3841 149.988 63.5135 149.997 63.6154C150.007 63.7174 149.898 63.8336 149.672 63.9641L149.399 64.1219C149.222 64.2239 149.049 64.2748 148.878 64.2748C148.707 64.2748 148.496 64.2222 148.245 64.117C148.464 64.2694 148.58 64.4064 148.593 64.5281C148.606 64.6498 148.519 64.7649 148.331 64.8734L148.015 65.0559C147.768 65.1984 147.545 65.2658 147.345 65.2582C147.148 65.2494 146.912 65.1661 146.639 65.0082L144.89 63.9986Z" stroke="url(#paint75_linear_22_5918)" stroke-width="1.94113" mask="url(#path-33-inside-1_22_5918)"/>
<path d="M150.792 67.4452L151.49 67.0423L149.208 65.7252L149.712 65.4341L153.845 65.6528L154.506 66.0343L152.629 67.118L153.358 67.5389L152.854 67.83L152.125 67.409L151.427 67.8119L150.792 67.4452ZM151.994 66.7513L153.341 65.9735L150.347 65.8008L151.994 66.7513Z" stroke="url(#paint76_linear_22_5918)" stroke-width="1.94113" mask="url(#path-33-inside-1_22_5918)"/>
<path d="M154.683 68.1029L156.523 67.238L159.123 68.7393L158.559 69.0057L156.457 67.7922L155.805 68.0898C156.09 68.2235 156.336 68.3436 156.543 68.4499C156.752 68.5573 156.937 68.6576 157.098 68.7508C157.596 69.038 157.883 69.3028 157.961 69.5451C158.041 69.7862 157.911 70.0049 157.571 70.2012C157.218 70.4051 156.83 70.4774 156.409 70.4182C155.989 70.3601 155.488 70.1628 154.905 69.8262C154.599 69.6497 154.333 69.4842 154.107 69.3296C153.883 69.1762 153.706 69.0386 153.575 68.9169L154.005 68.4943C154.246 68.6949 154.483 68.878 154.717 69.0435C154.954 69.2091 155.194 69.3614 155.435 69.5007C155.813 69.7188 156.115 69.8509 156.343 69.8969C156.573 69.9419 156.776 69.9134 156.953 69.8114C157.12 69.715 157.165 69.6026 157.087 69.4743C157.009 69.3461 156.791 69.1789 156.434 68.9728C156.207 68.8413 155.946 68.7026 155.651 68.5568C155.357 68.411 155.034 68.2597 154.683 68.1029Z" stroke="url(#paint77_linear_22_5918)" stroke-width="1.94113" mask="url(#path-33-inside-1_22_5918)"/>
<path d="M159.756 71.0118C159.727 71.0239 159.7 71.0365 159.673 71.0497C159.647 71.0628 159.612 71.0814 159.571 71.1056C159.28 71.2733 159.138 71.3994 159.143 71.4838C159.153 71.5682 159.289 71.686 159.551 71.8373L160.391 72.3224C160.598 72.4419 160.766 72.5093 160.895 72.5247C161.026 72.5411 161.161 72.5093 161.3 72.4293L161.465 72.3339C161.605 72.2528 161.656 72.1722 161.616 72.0922C161.58 72.0122 161.429 71.8954 161.163 71.7419C160.948 71.6181 160.722 71.4953 160.485 71.3736C160.251 71.2519 160.008 71.1313 159.756 71.0118ZM160.251 70.7718C160.515 70.8847 160.766 70.9998 161.003 71.1171C161.244 71.2344 161.472 71.355 161.687 71.4788C162.173 71.7595 162.449 71.9848 162.516 72.1547C162.584 72.3235 162.472 72.4923 162.18 72.6611L161.772 72.8963C161.522 73.041 161.253 73.0996 160.966 73.0722C160.68 73.0448 160.36 72.9292 160.006 72.7253L158.733 71.9902C158.353 71.771 158.16 71.5824 158.152 71.4246C158.144 71.2667 158.317 71.0858 158.67 70.8819L159.066 70.6534C159.627 70.33 160.253 70.1918 160.946 70.239C161.643 70.2861 162.345 70.5136 163.051 70.9214C163.078 70.9367 163.105 70.9537 163.134 70.9724C163.166 70.991 163.206 71.0173 163.254 71.0513L163.185 71.5709L162.991 71.4591C162.352 71.0897 161.83 70.8567 161.428 70.7602C161.027 70.6627 160.635 70.6665 160.251 70.7718Z" stroke="url(#paint78_linear_22_5918)" stroke-width="1.94113" mask="url(#path-33-inside-1_22_5918)"/>
</g>
</g>
<defs>
<filter id="filter0_f_22_5918" x="0.601679" y="27.9108" width="281.803" height="180.736" filterUnits="userSpaceOnUse" color-interpolation-filters="sRGB">
<feFlood flood-opacity="0" result="BackgroundImageFix"/>
<feBlend mode="normal" in="SourceGraphic" in2="BackgroundImageFix" result="shape"/>
<feGaussianBlur stdDeviation="10.6762" result="effect1_foregroundBlur_22_5918"/>
</filter>
<filter id="filter1_i_22_5918" x="84.793" y="74.7428" width="79.5262" height="46.3238" filterUnits="userSpaceOnUse" color-interpolation-filters="sRGB">
<feFlood flood-opacity="0" result="BackgroundImageFix"/>
<feBlend mode="normal" in="SourceGraphic" in2="BackgroundImageFix" result="shape"/>
<feColorMatrix in="SourceAlpha" type="matrix" values="0 0 0 0 0 0 0 0 0 0 0 0 0 0 0 0 0 0 127 0" result="hardAlpha"/>
<feOffset dx="0.970565" dy="0.485282"/>
<feGaussianBlur stdDeviation="0.485282"/>
<feComposite in2="hardAlpha" operator="arithmetic" k2="-1" k3="1"/>
<feColorMatrix type="matrix" values="0 0 0 0 0 0 0 0 0 0 0 0 0 0 0 0 0 0 0.15 0"/>
<feBlend mode="normal" in2="shape" result="effect1_innerShadow_22_5918"/>
</filter>
<filter id="filter2_b_22_5918" x="16.1307" y="-4.11785" width="250.745" height="149.678" filterUnits="userSpaceOnUse" color-interpolation-filters="sRGB">
<feFlood flood-opacity="0" result="BackgroundImageFix"/>
<feGaussianBlur in="BackgroundImage" stdDeviation="2.91169"/>
<feComposite in2="SourceAlpha" operator="in" result="effect1_backgroundBlur_22_5918"/>
<feBlend mode="normal" in="SourceGraphic" in2="effect1_backgroundBlur_22_5918" result="shape"/>
</filter>
<filter id="filter3_b_22_5918" x="10.3073" y="-9.94124" width="262.392" height="161.325" filterUnits="userSpaceOnUse" color-interpolation-filters="sRGB">
<feFlood flood-opacity="0" result="BackgroundImageFix"/>
<feGaussianBlur in="BackgroundImage" stdDeviation="5.82339"/>
<feComposite in2="SourceAlpha" operator="in" result="effect1_backgroundBlur_22_5918"/>
<feBlend mode="normal" in="SourceGraphic" in2="effect1_backgroundBlur_22_5918" result="shape"/>
</filter>
<filter id="filter4_b_22_5918" x="10.3073" y="-9.94124" width="262.392" height="161.325" filterUnits="userSpaceOnUse" color-interpolation-filters="sRGB">
<feFlood flood-opacity="0" result="BackgroundImageFix"/>
<feGaussianBlur in="BackgroundImage" stdDeviation="5.82339"/>
<feComposite in2="SourceAlpha" operator="in" result="effect1_backgroundBlur_22_5918"/>
<feBlend mode="normal" in="SourceGraphic" in2="effect1_backgroundBlur_22_5918" result="shape"/>
</filter>
<filter id="filter5_i_22_5918" x="84.6978" y="27.2403" width="79.5262" height="46.3238" filterUnits="userSpaceOnUse" color-interpolation-filters="sRGB">
<feFlood flood-opacity="0" result="BackgroundImageFix"/>
<feBlend mode="normal" in="SourceGraphic" in2="BackgroundImageFix" result="shape"/>
<feColorMatrix in="SourceAlpha" type="matrix" values="0 0 0 0 0 0 0 0 0 0 0 0 0 0 0 0 0 0 127 0" result="hardAlpha"/>
<feOffset dx="0.970565" dy="0.485282"/>
<feGaussianBlur stdDeviation="0.485282"/>
<feComposite in2="hardAlpha" operator="arithmetic" k2="-1" k3="1"/>
<feColorMatrix type="matrix" values="0 0 0 0 0 0 0 0 0 0 0 0 0 0 0 0 0 0 0.15 0"/>
<feBlend mode="normal" in2="shape" result="effect1_innerShadow_22_5918"/>
</filter>
<linearGradient id="paint0_linear_22_5918" x1="55.075" y1="0" x2="55.075" y2="172.753" gradientUnits="userSpaceOnUse">
<stop stop-color="#E88A00"/>
<stop offset="1"/>
</linearGradient>
<linearGradient id="paint1_linear_22_5918" x1="55.075" y1="0" x2="55.075" y2="172.753" gradientUnits="userSpaceOnUse">
<stop stop-color="#E88A00"/>
<stop offset="1"/>
</linearGradient>
<linearGradient id="paint2_linear_22_5918" x1="55.075" y1="0" x2="55.075" y2="172.753" gradientUnits="userSpaceOnUse">
<stop stop-color="#E42C64"/>
<stop offset="1" stop-color="#614AD3"/>
</linearGradient>
<linearGradient id="paint3_linear_22_5918" x1="168.523" y1="115.367" x2="152.607" y2="142.936" gradientUnits="userSpaceOnUse">
<stop stop-color="#7A3131" stop-opacity="0.5"/>
<stop offset="1" stop-color="#C05555" stop-opacity="0.1"/>
</linearGradient>
<linearGradient id="paint4_linear_22_5918" x1="168.523" y1="115.367" x2="152.607" y2="142.936" gradientUnits="userSpaceOnUse">
<stop stop-color="#7A3131" stop-opacity="0.5"/>
<stop offset="1" stop-color="#C05555" stop-opacity="0.1"/>
</linearGradient>
<linearGradient id="paint5_linear_22_5918" x1="168.523" y1="115.367" x2="152.607" y2="142.936" gradientUnits="userSpaceOnUse">
<stop stop-color="#7A3131" stop-opacity="0.5"/>
<stop offset="1" stop-color="#C05555" stop-opacity="0.1"/>
</linearGradient>
<linearGradient id="paint6_linear_22_5918" x1="168.523" y1="115.367" x2="152.607" y2="142.936" gradientUnits="userSpaceOnUse">
<stop stop-color="#7A3131" stop-opacity="0.5"/>
<stop offset="1" stop-color="#C05555" stop-opacity="0.1"/>
</linearGradient>
<linearGradient id="paint7_linear_22_5918" x1="200.359" y1="96.9875" x2="184.443" y2="124.557" gradientUnits="userSpaceOnUse">
<stop stop-color="#7A3131" stop-opacity="0.5"/>
<stop offset="1" stop-color="#C05555" stop-opacity="0.1"/>
</linearGradient>
<linearGradient id="paint8_linear_22_5918" x1="200.359" y1="96.9875" x2="184.443" y2="124.557" gradientUnits="userSpaceOnUse">
<stop stop-color="#7A3131" stop-opacity="0.5"/>
<stop offset="1" stop-color="#C05555" stop-opacity="0.1"/>
</linearGradient>
<linearGradient id="paint9_linear_22_5918" x1="200.359" y1="96.9875" x2="184.443" y2="124.557" gradientUnits="userSpaceOnUse">
<stop stop-color="#7A3131" stop-opacity="0.5"/>
<stop offset="1" stop-color="#C05555" stop-opacity="0.1"/>
</linearGradient>
<linearGradient id="paint10_linear_22_5918" x1="200.359" y1="96.9875" x2="184.443" y2="124.557" gradientUnits="userSpaceOnUse">
<stop stop-color="#7A3131" stop-opacity="0.5"/>
<stop offset="1" stop-color="#C05555" stop-opacity="0.1"/>
</linearGradient>
<linearGradient id="paint11_linear_22_5918" x1="136.686" y1="133.746" x2="120.77" y2="161.316" gradientUnits="userSpaceOnUse">
<stop stop-color="#7A3131" stop-opacity="0.5"/>
<stop offset="1" stop-color="#C05555" stop-opacity="0.1"/>
</linearGradient>
<linearGradient id="paint12_linear_22_5918" x1="136.686" y1="133.746" x2="120.77" y2="161.316" gradientUnits="userSpaceOnUse">
<stop stop-color="#7A3131" stop-opacity="0.5"/>
<stop offset="1" stop-color="#C05555" stop-opacity="0.1"/>
</linearGradient>
<linearGradient id="paint13_linear_22_5918" x1="136.686" y1="133.746" x2="120.77" y2="161.316" gradientUnits="userSpaceOnUse">
<stop stop-color="#7A3131" stop-opacity="0.5"/>
<stop offset="1" stop-color="#C05555" stop-opacity="0.1"/>
</linearGradient>
<linearGradient id="paint14_linear_22_5918" x1="136.686" y1="133.746" x2="120.77" y2="161.316" gradientUnits="userSpaceOnUse">
<stop stop-color="#7A3131" stop-opacity="0.5"/>
<stop offset="1" stop-color="#C05555" stop-opacity="0.1"/>
</linearGradient>
<linearGradient id="paint15_linear_22_5918" x1="0.777206" y1="1.04106" x2="19.2823" y2="26.466" gradientUnits="userSpaceOnUse">
<stop stop-color="#D9C7E7"/>
<stop offset="1" stop-color="#B68DD6" stop-opacity="0.3"/>
</linearGradient>
<linearGradient id="paint16_linear_22_5918" x1="81.3426" y1="76.3595" x2="140.867" y2="179.467" gradientUnits="userSpaceOnUse">
<stop stop-color="#85C7EE"/>
<stop offset="1" stop-color="#809DD0"/>
</linearGradient>
<linearGradient id="paint17_linear_22_5918" x1="81.3426" y1="76.3595" x2="140.867" y2="179.467" gradientUnits="userSpaceOnUse">
<stop stop-color="#85C7EE"/>
<stop offset="1" stop-color="#809DD0"/>
</linearGradient>
<linearGradient id="paint18_linear_22_5918" x1="81.3426" y1="76.3595" x2="140.867" y2="179.467" gradientUnits="userSpaceOnUse">
<stop stop-color="#85C7EE"/>
<stop offset="1" stop-color="#809DD0"/>
</linearGradient>
<linearGradient id="paint19_linear_22_5918" x1="81.3426" y1="76.3595" x2="140.867" y2="179.467" gradientUnits="userSpaceOnUse">
<stop stop-color="#85C7EE"/>
<stop offset="1" stop-color="#809DD0"/>
</linearGradient>
<linearGradient id="paint20_linear_22_5918" x1="81.3426" y1="76.3595" x2="140.867" y2="179.467" gradientUnits="userSpaceOnUse">
<stop stop-color="#85C7EE"/>
<stop offset="1" stop-color="#809DD0"/>
</linearGradient>
<linearGradient id="paint21_linear_22_5918" x1="81.3426" y1="76.3595" x2="140.867" y2="179.467" gradientUnits="userSpaceOnUse">
<stop stop-color="#85C7EE"/>
<stop offset="1" stop-color="#809DD0"/>
</linearGradient>
<linearGradient id="paint22_linear_22_5918" x1="81.3426" y1="76.3595" x2="140.867" y2="179.467" gradientUnits="userSpaceOnUse">
<stop stop-color="#85C7EE"/>
<stop offset="1" stop-color="#809DD0"/>
</linearGradient>
<linearGradient id="paint23_linear_22_5918" x1="81.3426" y1="76.3595" x2="140.867" y2="179.467" gradientUnits="userSpaceOnUse">
<stop stop-color="#85C7EE"/>
<stop offset="1" stop-color="#809DD0"/>
</linearGradient>
<linearGradient id="paint24_linear_22_5918" x1="81.3426" y1="76.3595" x2="140.867" y2="179.467" gradientUnits="userSpaceOnUse">
<stop stop-color="#85C7EE"/>
<stop offset="1" stop-color="#809DD0"/>
</linearGradient>
<linearGradient id="paint25_linear_22_5918" x1="81.3426" y1="76.3595" x2="140.867" y2="179.467" gradientUnits="userSpaceOnUse">
<stop stop-color="#85C7EE"/>
<stop offset="1" stop-color="#809DD0"/>
</linearGradient>
<linearGradient id="paint26_linear_22_5918" x1="81.3426" y1="76.3595" x2="140.867" y2="179.467" gradientUnits="userSpaceOnUse">
<stop stop-color="#85C7EE"/>
<stop offset="1" stop-color="#809DD0"/>
</linearGradient>
<linearGradient id="paint27_linear_22_5918" x1="81.3426" y1="76.3595" x2="140.867" y2="179.467" gradientUnits="userSpaceOnUse">
<stop stop-color="#85C7EE"/>
<stop offset="1" stop-color="#809DD0"/>
</linearGradient>
<linearGradient id="paint28_linear_22_5918" x1="81.3426" y1="76.3595" x2="140.867" y2="179.467" gradientUnits="userSpaceOnUse">
<stop stop-color="#85C7EE"/>
<stop offset="1" stop-color="#809DD0"/>
</linearGradient>
<linearGradient id="paint29_linear_22_5918" x1="81.3426" y1="76.3595" x2="140.867" y2="179.467" gradientUnits="userSpaceOnUse">
<stop stop-color="#85C7EE"/>
<stop offset="1" stop-color="#809DD0"/>
</linearGradient>
<linearGradient id="paint30_linear_22_5918" x1="81.3426" y1="76.3595" x2="140.867" y2="179.467" gradientUnits="userSpaceOnUse">
<stop stop-color="#85C7EE"/>
<stop offset="1" stop-color="#809DD0"/>
</linearGradient>
<linearGradient id="paint31_linear_22_5918" x1="81.3426" y1="76.3595" x2="140.867" y2="179.467" gradientUnits="userSpaceOnUse">
<stop stop-color="#85C7EE"/>
<stop offset="1" stop-color="#809DD0"/>
</linearGradient>
<linearGradient id="paint32_linear_22_5918" x1="55.075" y1="0" x2="55.075" y2="172.753" gradientUnits="userSpaceOnUse">
<stop stop-color="white" stop-opacity="0.7"/>
<stop offset="1" stop-color="white" stop-opacity="0"/>
</linearGradient>
<linearGradient id="paint33_linear_22_5918" x1="55.075" y1="0" x2="55.075" y2="172.753" gradientUnits="userSpaceOnUse">
<stop stop-color="white" stop-opacity="0.7"/>
<stop offset="1" stop-color="white" stop-opacity="0"/>
</linearGradient>
<linearGradient id="paint34_linear_22_5918" x1="55.075" y1="0" x2="55.075" y2="172.753" gradientUnits="userSpaceOnUse">
<stop stop-color="#E42C64"/>
<stop offset="1" stop-color="#614AD3"/>
</linearGradient>
<linearGradient id="paint35_linear_22_5918" x1="55.075" y1="0" x2="55.075" y2="172.753" gradientUnits="userSpaceOnUse">
<stop stop-color="white" stop-opacity="0.7"/>
<stop offset="1" stop-color="white" stop-opacity="0"/>
</linearGradient>
<linearGradient id="paint36_linear_22_5918" x1="162.474" y1="114.919" x2="157.664" y2="123.251" gradientUnits="userSpaceOnUse">
<stop stop-color="white" stop-opacity="0.7"/>
<stop offset="1" stop-color="white" stop-opacity="0"/>
</linearGradient>
<linearGradient id="paint37_linear_22_5918" x1="0.777206" y1="1.04106" x2="19.2823" y2="26.466" gradientUnits="userSpaceOnUse">
<stop stop-color="#FCF9F9"/>
<stop offset="1" stop-color="#F1C5C5"/>
</linearGradient>
<linearGradient id="paint38_linear_22_5918" x1="10.1037" y1="0" x2="10.1037" y2="26.5469" gradientUnits="userSpaceOnUse">
<stop stop-color="white" stop-opacity="0.7"/>
<stop offset="1" stop-color="white" stop-opacity="0"/>
</linearGradient>
<linearGradient id="paint39_linear_22_5918" x1="6.9339" y1="0" x2="6.9339" y2="5.54712" gradientUnits="userSpaceOnUse">
<stop stop-color="white" stop-opacity="0.7"/>
<stop offset="1" stop-color="white" stop-opacity="0"/>
</linearGradient>
<linearGradient id="paint40_linear_22_5918" x1="77.8747" y1="38.0604" x2="77.4417" y2="38.8104" gradientUnits="userSpaceOnUse">
<stop stop-color="white" stop-opacity="0.7"/>
<stop offset="1" stop-color="white" stop-opacity="0"/>
</linearGradient>
<linearGradient id="paint41_linear_22_5918" x1="91.2755" y1="45.7968" x2="90.8426" y2="46.5468" gradientUnits="userSpaceOnUse">
<stop stop-color="white" stop-opacity="0.7"/>
<stop offset="1" stop-color="white" stop-opacity="0"/>
</linearGradient>
<linearGradient id="paint42_linear_22_5918" x1="72.4561" y1="40.8831" x2="72.0231" y2="41.6331" gradientUnits="userSpaceOnUse">
<stop stop-color="white" stop-opacity="0.7"/>
<stop offset="1" stop-color="white" stop-opacity="0"/>
</linearGradient>
<linearGradient id="paint43_linear_22_5918" x1="86.3721" y1="48.9171" x2="85.9391" y2="49.6671" gradientUnits="userSpaceOnUse">
<stop stop-color="white" stop-opacity="0.7"/>
<stop offset="1" stop-color="white" stop-opacity="0"/>
</linearGradient>
<linearGradient id="paint44_linear_22_5918" x1="67.5661" y1="44.0115" x2="67.1331" y2="44.7615" gradientUnits="userSpaceOnUse">
<stop stop-color="white" stop-opacity="0.7"/>
<stop offset="1" stop-color="white" stop-opacity="0"/>
</linearGradient>
<linearGradient id="paint45_linear_22_5918" x1="80.9674" y1="51.748" x2="80.5345" y2="52.4979" gradientUnits="userSpaceOnUse">
<stop stop-color="white" stop-opacity="0.7"/>
<stop offset="1" stop-color="white" stop-opacity="0"/>
</linearGradient>
<linearGradient id="paint46_linear_22_5918" x1="233.439" y1="80.5394" x2="230.969" y2="84.8174" gradientUnits="userSpaceOnUse">
<stop stop-color="white" stop-opacity="0.7"/>
<stop offset="1" stop-color="white" stop-opacity="0"/>
</linearGradient>
<linearGradient id="paint47_linear_22_5918" x1="81.2474" y1="28.857" x2="140.771" y2="131.964" gradientUnits="userSpaceOnUse">
<stop stop-color="#497A98"/>
<stop offset="1" stop-color="#3C5074"/>
</linearGradient>
<linearGradient id="paint48_linear_22_5918" x1="81.2474" y1="28.857" x2="140.771" y2="131.964" gradientUnits="userSpaceOnUse">
<stop stop-color="#497A98"/>
<stop offset="1" stop-color="#3C5074"/>
</linearGradient>
<linearGradient id="paint49_linear_22_5918" x1="81.2474" y1="28.857" x2="140.771" y2="131.964" gradientUnits="userSpaceOnUse">
<stop stop-color="#497A98"/>
<stop offset="1" stop-color="#3C5074"/>
</linearGradient>
<linearGradient id="paint50_linear_22_5918" x1="81.2474" y1="28.857" x2="140.771" y2="131.964" gradientUnits="userSpaceOnUse">
<stop stop-color="#497A98"/>
<stop offset="1" stop-color="#3C5074"/>
</linearGradient>
<linearGradient id="paint51_linear_22_5918" x1="81.2474" y1="28.857" x2="140.771" y2="131.964" gradientUnits="userSpaceOnUse">
<stop stop-color="#497A98"/>
<stop offset="1" stop-color="#3C5074"/>
</linearGradient>
<linearGradient id="paint52_linear_22_5918" x1="81.2474" y1="28.857" x2="140.771" y2="131.964" gradientUnits="userSpaceOnUse">
<stop stop-color="#497A98"/>
<stop offset="1" stop-color="#3C5074"/>
</linearGradient>
<linearGradient id="paint53_linear_22_5918" x1="81.2474" y1="28.857" x2="140.771" y2="131.964" gradientUnits="userSpaceOnUse">
<stop stop-color="#497A98"/>
<stop offset="1" stop-color="#3C5074"/>
</linearGradient>
<linearGradient id="paint54_linear_22_5918" x1="81.2474" y1="28.857" x2="140.771" y2="131.964" gradientUnits="userSpaceOnUse">
<stop stop-color="#497A98"/>
<stop offset="1" stop-color="#3C5074"/>
</linearGradient>
<linearGradient id="paint55_linear_22_5918" x1="81.2474" y1="28.857" x2="140.771" y2="131.964" gradientUnits="userSpaceOnUse">
<stop stop-color="#497A98"/>
<stop offset="1" stop-color="#3C5074"/>
</linearGradient>
<linearGradient id="paint56_linear_22_5918" x1="81.2474" y1="28.857" x2="140.771" y2="131.964" gradientUnits="userSpaceOnUse">
<stop stop-color="#497A98"/>
<stop offset="1" stop-color="#3C5074"/>
</linearGradient>
<linearGradient id="paint57_linear_22_5918" x1="81.2474" y1="28.857" x2="140.771" y2="131.964" gradientUnits="userSpaceOnUse">
<stop stop-color="#497A98"/>
<stop offset="1" stop-color="#3C5074"/>
</linearGradient>
<linearGradient id="paint58_linear_22_5918" x1="81.2474" y1="28.857" x2="140.771" y2="131.964" gradientUnits="userSpaceOnUse">
<stop stop-color="#497A98"/>
<stop offset="1" stop-color="#3C5074"/>
</linearGradient>
<linearGradient id="paint59_linear_22_5918" x1="81.2474" y1="28.857" x2="140.771" y2="131.964" gradientUnits="userSpaceOnUse">
<stop stop-color="#497A98"/>
<stop offset="1" stop-color="#3C5074"/>
</linearGradient>
<linearGradient id="paint60_linear_22_5918" x1="81.2474" y1="28.857" x2="140.771" y2="131.964" gradientUnits="userSpaceOnUse">
<stop stop-color="#497A98"/>
<stop offset="1" stop-color="#3C5074"/>
</linearGradient>
<linearGradient id="paint61_linear_22_5918" x1="81.2474" y1="28.857" x2="140.771" y2="131.964" gradientUnits="userSpaceOnUse">
<stop stop-color="#497A98"/>
<stop offset="1" stop-color="#3C5074"/>
</linearGradient>
<linearGradient id="paint62_linear_22_5918" x1="81.2474" y1="28.857" x2="140.771" y2="131.964" gradientUnits="userSpaceOnUse">
<stop stop-color="#497A98"/>
<stop offset="1" stop-color="#3C5074"/>
</linearGradient>
<linearGradient id="paint63_linear_22_5918" x1="85.5638" y1="28.0099" x2="124.049" y2="94.674" gradientUnits="userSpaceOnUse">
<stop stop-color="white" stop-opacity="0.7"/>
<stop offset="1" stop-color="white" stop-opacity="0"/>
</linearGradient>
<linearGradient id="paint64_linear_22_5918" x1="85.5638" y1="28.0099" x2="124.049" y2="94.674" gradientUnits="userSpaceOnUse">
<stop stop-color="white" stop-opacity="0.7"/>
<stop offset="1" stop-color="white" stop-opacity="0"/>
</linearGradient>
<linearGradient id="paint65_linear_22_5918" x1="85.5638" y1="28.0099" x2="124.049" y2="94.674" gradientUnits="userSpaceOnUse">
<stop stop-color="white" stop-opacity="0.7"/>
<stop offset="1" stop-color="white" stop-opacity="0"/>
</linearGradient>
<linearGradient id="paint66_linear_22_5918" x1="85.5638" y1="28.0099" x2="124.049" y2="94.674" gradientUnits="userSpaceOnUse">
<stop stop-color="white" stop-opacity="0.7"/>
<stop offset="1" stop-color="white" stop-opacity="0"/>
</linearGradient>
<linearGradient id="paint67_linear_22_5918" x1="85.5638" y1="28.0099" x2="124.049" y2="94.674" gradientUnits="userSpaceOnUse">
<stop stop-color="white" stop-opacity="0.7"/>
<stop offset="1" stop-color="white" stop-opacity="0"/>
</linearGradient>
<linearGradient id="paint68_linear_22_5918" x1="85.5638" y1="28.0099" x2="124.049" y2="94.674" gradientUnits="userSpaceOnUse">
<stop stop-color="white" stop-opacity="0.7"/>
<stop offset="1" stop-color="white" stop-opacity="0"/>
</linearGradient>
<linearGradient id="paint69_linear_22_5918" x1="85.5638" y1="28.0099" x2="124.049" y2="94.674" gradientUnits="userSpaceOnUse">
<stop stop-color="white" stop-opacity="0.7"/>
<stop offset="1" stop-color="white" stop-opacity="0"/>
</linearGradient>
<linearGradient id="paint70_linear_22_5918" x1="85.5638" y1="28.0099" x2="124.049" y2="94.674" gradientUnits="userSpaceOnUse">
<stop stop-color="white" stop-opacity="0.7"/>
<stop offset="1" stop-color="white" stop-opacity="0"/>
</linearGradient>
<linearGradient id="paint71_linear_22_5918" x1="85.5638" y1="28.0099" x2="124.049" y2="94.674" gradientUnits="userSpaceOnUse">
<stop stop-color="white" stop-opacity="0.7"/>
<stop offset="1" stop-color="white" stop-opacity="0"/>
</linearGradient>
<linearGradient id="paint72_linear_22_5918" x1="85.5638" y1="28.0099" x2="124.049" y2="94.674" gradientUnits="userSpaceOnUse">
<stop stop-color="white" stop-opacity="0.7"/>
<stop offset="1" stop-color="white" stop-opacity="0"/>
</linearGradient>
<linearGradient id="paint73_linear_22_5918" x1="85.5638" y1="28.0099" x2="124.049" y2="94.674" gradientUnits="userSpaceOnUse">
<stop stop-color="white" stop-opacity="0.7"/>
<stop offset="1" stop-color="white" stop-opacity="0"/>
</linearGradient>
<linearGradient id="paint74_linear_22_5918" x1="85.5638" y1="28.0099" x2="124.049" y2="94.674" gradientUnits="userSpaceOnUse">
<stop stop-color="white" stop-opacity="0.7"/>
<stop offset="1" stop-color="white" stop-opacity="0"/>
</linearGradient>
<linearGradient id="paint75_linear_22_5918" x1="85.5638" y1="28.0099" x2="124.049" y2="94.674" gradientUnits="userSpaceOnUse">
<stop stop-color="white" stop-opacity="0.7"/>
<stop offset="1" stop-color="white" stop-opacity="0"/>
</linearGradient>
<linearGradient id="paint76_linear_22_5918" x1="85.5638" y1="28.0099" x2="124.049" y2="94.674" gradientUnits="userSpaceOnUse">
<stop stop-color="white" stop-opacity="0.7"/>
<stop offset="1" stop-color="white" stop-opacity="0"/>
</linearGradient>
<linearGradient id="paint77_linear_22_5918" x1="85.5638" y1="28.0099" x2="124.049" y2="94.674" gradientUnits="userSpaceOnUse">
<stop stop-color="white" stop-opacity="0.7"/>
<stop offset="1" stop-color="white" stop-opacity="0"/>
</linearGradient>
<linearGradient id="paint78_linear_22_5918" x1="85.5638" y1="28.0099" x2="124.049" y2="94.674" gradientUnits="userSpaceOnUse">
<stop stop-color="white" stop-opacity="0.7"/>
<stop offset="1" stop-color="white" stop-opacity="0"/>
</linearGradient>
</defs>
</svg>
